<svg width="48" height="48" viewBox="0 0 48 48" fill="none" xmlns="http://www.w3.org/2000/svg">
<path d="M34.6208 13.3792V0H13.3792V13.3792H0V34.6208H13.3792V48H34.6208V34.6208H48V13.3792H34.6208ZM44.7334 31.0501H31.0501V44.7334H16.9586V31.0501H3.26661V16.9499H16.9499V3.26661H31.0415V16.9499H44.7247V31.0501H44.7334Z" fill="#7E7E7E"/>
<path d="M8.70508 23.7958C12.5538 28.0181 18.0966 30.6679 24.2562 30.6679C30.2508 30.6679 35.6633 28.1571 39.4946 24.1347C35.6459 19.9124 30.1031 17.2626 23.9434 17.2626C17.9489 17.2626 12.5364 19.7734 8.70508 23.7958ZM21.172 27.8357C17.7491 27.2883 14.717 25.8375 12.4582 23.7872C14.7518 21.7977 17.8012 20.3989 21.2329 19.9037C20.0253 20.8159 19.252 22.2668 19.252 23.8914C19.252 25.4987 19.9992 26.9234 21.172 27.8357ZM27.4099 20.0167C30.6765 20.6074 33.5695 22.0322 35.7501 24.0044C33.5348 25.9244 30.6244 27.2883 27.3491 27.827C28.5132 26.9148 29.2604 25.49 29.2604 23.9001C29.2604 22.3276 28.5393 20.9376 27.4099 20.0167ZM26.8104 23.9001C26.8104 25.3075 25.6636 26.4543 24.2562 26.4543C22.8488 26.4543 21.702 25.3075 21.702 23.9001C21.702 22.4927 22.8488 21.3459 24.2562 21.3459C25.6636 21.3459 26.8104 22.484 26.8104 23.9001Z" fill="#7E7E7E"/>
</svg>
