<svg width="64" height="49" viewBox="0 0 64 49" fill="none" xmlns="http://www.w3.org/2000/svg">
<path d="M63.0256 18.9175C62.4163 17.4417 61.1653 16.1243 59.6428 15.1745C55.2475 12.599 48.5487 12.4158 44.0192 14.7442C41.5491 15.906 39.9254 18.2061 39.4204 20.5742C38.504 24.4652 38.7406 29.0942 41.9892 32.0107C45.7771 35.0746 51.2898 35.752 56.1926 34.4928C56.4254 34.4513 57.1639 34.2802 57.6727 34.0308L57.8162 33.9743C59.3388 33.3903 60.7908 32.4398 61.8751 31.1524C64.3764 27.7763 64.5481 22.7187 63.0256 18.9175ZM55.044 27.6547C54.8711 28.3926 54.333 29.157 53.4852 29.4341C52.135 29.9825 50.3078 29.8304 49.0569 29.1893C48.0075 28.5124 47.8727 27.3788 47.7378 26.3062C47.6354 24.1922 47.47 21.9532 48.1117 20.0206C48.6149 18.8236 50.0026 18.5154 51.2573 18.425C52.5751 18.425 53.8579 18.6105 54.6719 19.5915C55.1788 20.2948 55.1476 21.2153 55.2475 22.0442C55.2113 23.7913 55.3811 25.8748 55.044 27.6547ZM14.9669 29.5591C13.8501 29.4963 12.5991 29.5861 11.5179 29.464L11.551 18.6986L11.6191 18.6087L14.9663 18.5788C15.0012 16.8317 15.0343 14.9573 14.9313 13.3651L2.18485 13.3317L0.0855215 13.3651C0.0524365 14.989 0.0524365 16.8887 0.0855215 18.546C1.23663 18.5788 2.31657 18.546 3.43334 18.6416V29.0671L3.40088 29.4957L0.0524365 29.5585C-0.0174788 31.2445 -0.0174788 32.9323 0.0524365 34.6183H14.9663L14.9669 29.5591ZM52.5046 36.9173C51.0856 38.79 49.2934 40.5987 47.3358 42.0059C47.2646 42.1016 47.0618 42.0653 46.9975 41.9771C46.1491 41.4881 45.2365 41.0872 44.4237 40.5987C45.5068 39.4034 46.5561 38.2082 47.3683 36.8844H46.3158C45.4749 38.0233 44.5935 39.2185 43.4786 40.2271C41.9892 39.6765 40.6377 39.1863 39.1158 38.8153L38.9466 38.6984C39.1832 38.0786 39.622 37.4973 39.7562 36.8833H38.8436L37.931 38.5405C35.9377 38.1419 33.7385 37.9253 31.7091 37.8044C31.6067 37.529 31.7409 37.1304 31.6067 36.8839H30.7272C30.6573 37.2525 30.8289 37.5308 30.6254 37.8366C28.5286 37.9253 26.4998 38.1425 24.5403 38.514L23.6239 36.8839C23.2893 36.8839 22.9129 36.8251 22.6794 36.9167L23.5228 38.7266L23.4216 38.8165C21.906 39.2208 20.4159 39.703 18.9577 40.26L18.8235 40.1972C17.8746 39.2467 16.9607 38.2082 16.216 37.1656C16.0481 36.6414 15.3714 36.9478 14.9993 36.8862C15.8084 38.2375 16.8939 39.4317 17.9739 40.6603C17.0612 41.1523 16.1517 41.7012 15.2003 42.1039C13.1316 40.65 11.3282 38.9 9.85869 36.9207C9.4523 36.8603 9.1845 36.8879 8.77562 36.9207C11.2108 40.4167 14.9993 43.4823 18.9564 45.2916C18.9564 45.2916 18.9564 45.2645 18.9926 45.2645C19.0213 45.2645 19.0888 45.321 19.0213 45.3532C21.695 46.5497 24.5372 47.4079 27.5448 47.7778C37.9285 49.0335 47.8383 44.9575 53.5845 36.9207C53.2256 36.8844 52.8641 36.8839 52.5046 36.9173ZM38.4054 39.6765L38.5046 39.6148C39.9629 39.9213 41.3462 40.351 42.6321 40.9322C41.5491 42.0641 40.162 43.048 38.8786 43.8751C38.102 44.3031 37.3211 44.7674 36.5083 45.1332L35.0569 44.5508L35.1562 44.3389C36.3766 42.8371 37.459 41.302 38.4054 39.6765ZM31.7409 38.756C33.6699 38.7894 35.5988 38.9731 37.3885 39.37L37.4241 39.4633C36.479 41.1177 35.2923 42.7156 34.0094 44.215C33.4314 44.2778 32.8927 44.0658 32.3184 44.033L31.7403 43.9702C31.6741 42.1603 31.6386 40.5659 31.7409 38.756ZM25.2163 39.3078C26.9748 39.0014 28.8001 38.756 30.6928 38.756L30.7278 43.9443C30.0162 44.0929 29.2383 44.0929 28.5617 44.2501C27.1746 42.7438 26.026 41.1177 25.0472 39.4299L25.2163 39.3078ZM19.7686 40.9656C21.0907 40.3809 22.4753 39.9489 23.8942 39.6143L24.0315 39.6465C25.0097 41.3337 26.2282 42.927 27.4455 44.5215C26.9761 44.7686 26.398 44.916 25.9261 45.1655C23.6389 44.1228 21.5583 42.7335 19.7698 41.0549V40.965H19.7686V40.9656ZM24.1333 46.2086C21.2923 45.5318 18.6524 44.3671 16.2179 42.7749V42.6799C17.0294 42.2242 17.8446 41.7317 18.7205 41.3913C20.6494 43.1442 22.6432 44.4633 24.8075 45.7173C24.6389 45.9016 24.3692 46.086 24.1333 46.2086ZM36.6787 46.605C33.0949 47.3146 29.1023 47.3423 25.5191 46.5462C25.4511 46.3936 25.6883 46.3607 25.7894 46.2709C28.935 44.3982 33.8365 44.3982 36.9172 46.42C37.0171 46.605 36.7468 46.5462 36.6787 46.605ZM39.9267 45.7495L38.3373 46.2081C38.0658 46.0854 37.8304 45.9016 37.5914 45.7167L37.6594 45.6228C39.8243 44.4621 41.785 43.0474 43.6459 41.3608C44.5592 41.6978 45.4394 42.1603 46.2534 42.6787C44.3575 44.0658 42.1583 44.9817 39.9267 45.7495ZM9.79314 11.0023C10.6296 9.93431 11.5448 8.91992 12.5317 7.96774C13.4081 7.20105 14.2228 6.46546 15.171 5.91074C16.0512 6.43147 17.0306 6.8658 17.8759 7.35427C16.8284 8.54435 15.7453 9.74537 14.9681 11.0299C15.2035 11.1255 15.6448 11.0956 15.9838 11.0299C16.8284 9.89744 17.7385 8.76324 18.8247 7.75C20.2754 8.24193 21.6975 8.76151 23.1876 9.13132L23.3186 9.25287L22.4765 11.0293C22.8498 11.095 23.0864 11.0628 23.456 11.0293C23.7594 10.5115 23.9947 9.93028 24.333 9.40609C26.2969 9.80643 28.3607 10.0201 30.4575 10.0795C30.7259 10.2972 30.5243 10.7552 30.626 11.0293H31.5387C31.6379 10.7281 31.5044 10.3865 31.6379 10.1135C33.6012 10.0184 35.6631 9.83408 37.5639 9.40436L37.7287 9.43662L38.642 11.0276C38.9472 11.0276 39.3524 11.0933 39.5889 10.9648L38.7418 9.19065L38.8124 9.12902C40.3655 8.76094 41.8219 8.2091 43.3094 7.65842C44.3607 8.66992 45.3389 9.86576 46.2209 11.027C46.5911 11.027 46.9638 11.0604 47.2347 10.9643C46.8171 10.2794 46.3295 9.63305 45.7796 9.0334C45.3326 8.44585 44.8345 7.89401 44.2895 7.38192V7.22294L46.6573 5.96777L46.9987 5.84507C49.0575 7.28342 50.8597 9.01036 52.3385 10.9637C52.7443 10.9637 53.0832 11.0927 53.4228 10.9378C48.8858 4.6884 41.4136 0.666564 33.3346 0.0876535L33.2991 0.146985L33.2298 0.0876535C32.3177 -0.00278318 31.1972 -0.038497 30.2178 0.0519397C29.847 0.0254423 29.4081 0.0519397 28.9674 0.0876535C20.8523 0.666564 13.3788 4.50235 8.70945 11.0316C9.04842 11.0023 9.45418 11.1267 9.79314 11.0023ZM23.8305 8.3076L23.6957 8.3341C22.3074 8 20.9534 7.59793 19.6681 7.07835L19.7336 6.89402C21.5939 5.26904 23.5546 3.91883 25.7195 2.87852C26.2295 3.06285 26.7358 3.21434 27.2426 3.43208L27.1434 3.67171C25.8549 5.1475 24.843 6.73907 23.8305 8.3076ZM30.558 9.13305C29.6135 9.25575 28.7677 9.10598 27.8169 9.03801C26.908 8.91474 25.7557 8.82603 24.843 8.54608C25.8237 6.86753 26.9755 5.23909 28.3607 3.74026L30.5255 4.01272C30.626 5.60429 30.558 7.44528 30.558 9.13305ZM31.6055 9.16589C31.5387 7.53572 31.5736 5.72871 31.6055 4.04152C32.2847 3.95166 33.025 3.85662 33.7029 3.76618C35.0213 5.29727 36.3098 6.86695 37.1893 8.5455C35.3616 8.95391 33.487 9.16185 31.6055 9.16589ZM42.3974 7.01614C41.0759 7.53515 39.7219 8.0265 38.2699 8.3076C37.2224 6.68204 36.0732 5.05706 34.7841 3.48738C35.2586 3.24718 35.8366 3.06342 36.3422 2.81861C38.5446 3.82954 40.6726 5.26962 42.463 6.91995L42.3974 7.01614ZM38.0652 1.77254C40.9067 2.4488 43.5785 3.61238 46.0137 5.20683L45.9462 5.32953L43.6147 6.52364H43.4424C41.6527 4.87389 39.5565 3.43208 37.4234 2.29442C37.4909 2.08014 37.8311 1.92519 38.0652 1.77254ZM36.7143 1.46494V1.53003C33.7697 3.48738 29.003 3.67229 25.893 1.8624C25.7182 1.73971 25.3849 1.68038 25.3481 1.46552C28.935 0.702278 33.1599 0.640642 36.7143 1.46494ZM16.083 5.26962C18.2154 3.82954 20.582 2.7564 23.0852 2.02023C23.5109 1.88199 23.8605 1.67922 24.0965 1.86125C24.3006 2.02023 24.5397 2.1412 24.7063 2.29385C22.6107 3.48738 20.547 4.90096 18.6524 6.61465C17.7391 6.31339 16.897 5.85083 16.0824 5.3301L16.083 5.26962ZM30.593 29.7981C27.4143 30.5971 23.9622 29.9876 21.6638 27.7763C21.3947 27.4698 21.2237 27.104 20.9521 26.7987L16.3883 26.8281C16.3165 29.3114 16.2847 32.1639 16.3883 34.6183L21.459 34.5884L21.5264 33.1155C22.1039 33.3603 22.6794 33.6662 23.2531 33.9415C26.7701 35.2929 31.2977 35.5993 34.7823 33.9415C37.3204 32.657 38.6738 30.1737 38.3011 27.5003C37.931 24.8967 35.2242 22.5344 32.4869 21.8921L24.3006 19.713L23.6951 19.4359C23.4241 19.2234 23.2543 18.9486 23.3205 18.6087C23.9629 17.5995 25.4529 17.906 26.5691 17.9331C28.9362 18.2407 31.3708 18.9763 32.7578 20.9705C34.2442 20.9705 35.9683 20.997 37.5901 20.9382C37.6594 18.4244 37.5633 16.2176 37.5233 13.6716C36.0014 13.6393 34.1405 13.6393 32.6211 13.7038C32.5531 14.0685 32.6867 14.5881 32.5175 14.9579L30.9625 14.1906C27.2408 12.7499 22.0321 12.5996 18.6512 14.8381C16.452 16.3075 15.7771 18.9475 16.3527 21.2769C16.7903 23.4814 19.09 25.1081 21.2892 25.8725C24.2987 26.8523 27.4424 27.5626 30.4912 28.5119C30.7933 28.6363 31.1985 28.9145 31.1329 29.2509C31.1348 29.5239 30.8283 29.6812 30.593 29.7981Z" fill="#7E7E7E"/>
</svg>
