<svg width="48" height="48" viewBox="0 0 48 48" fill="none" xmlns="http://www.w3.org/2000/svg">
<path d="M20.6507 18.9975C20.8671 18.9975 21.1094 18.9975 21.3171 19.0408L21.8364 19.1446L21.8277 15.8904L21.4383 15.8471C21.1613 15.8212 20.9276 15.8125 20.642 15.8125C16.1415 15.8125 12.4805 19.4735 12.4805 23.9741C12.4805 28.4746 16.1415 32.1356 20.642 32.1356C21.3258 32.1356 21.8191 32.1356 21.8191 31.6509L21.8277 28.8381L21.3344 28.9073C21.1181 28.942 20.8844 28.9593 20.6507 28.9593C17.9071 28.9593 15.6741 26.7263 15.6741 23.9827C15.6741 21.2391 17.9071 18.9975 20.6507 18.9975Z" fill="#7E7E7E"/>
<path d="M33.7885 28.9506C31.6508 28.9506 29.738 27.5485 29.0716 25.5492H33.4856V22.3642H29.0889C29.7726 20.3823 31.6681 18.9975 33.7972 18.9975C34.0135 18.9975 34.2559 18.9975 34.4636 19.0408L34.9829 19.1446L34.9742 15.8904L34.5848 15.8471C34.3078 15.8212 34.0741 15.8125 33.7885 15.8125C29.288 15.8125 25.627 19.4735 25.627 23.9741C25.627 28.4746 29.288 32.1356 33.7885 32.1356C34.4723 32.1356 34.9569 32.1356 34.9569 31.6509L34.9656 28.8381L34.4722 28.9073C34.2472 28.9333 34.0222 28.9506 33.7885 28.9506Z" fill="#7E7E7E"/>
<path fill-rule="evenodd" clip-rule="evenodd" d="M23.9399 0L24.9006 1.93004L27.0297 2.24162L25.4891 3.74757L25.8526 5.87667L23.9399 4.8727L22.0358 5.87667L22.3993 3.74757L20.8501 2.24162L22.9878 1.93004L23.9399 0Z" fill="#7E7E7E"/>
<path fill-rule="evenodd" clip-rule="evenodd" d="M36.1343 3.32349L35.9698 5.4699L37.6575 6.82006L35.563 7.33935L34.7928 9.35594L33.659 7.52111L31.5039 7.41725L32.8973 5.77282L32.3348 3.68699L34.3254 4.50921L36.1343 3.32349Z" fill="#7E7E7E"/>
<path fill-rule="evenodd" clip-rule="evenodd" d="M44.9451 12.3765L43.7161 14.1421L44.4864 16.1587L42.4179 15.5442L40.7389 16.8943L40.6869 14.7306L38.8867 13.5536L40.9206 12.8439L41.4832 10.758L42.7901 12.4717L44.9451 12.3765Z" fill="#7E7E7E"/>
<path fill-rule="evenodd" clip-rule="evenodd" d="M47.9483 24.6405L45.9923 25.5492L45.6288 27.6697L44.1661 26.0858L42.0283 26.3974L43.0842 24.5193L42.1322 22.5806L44.244 23.0047L45.7846 21.4987L46.0442 23.6365L47.9483 24.6405Z" fill="#7E7E7E"/>
<path fill-rule="evenodd" clip-rule="evenodd" d="M44.3133 36.74L42.1669 36.5236L40.7734 38.1767L40.3147 36.0649L38.3154 35.2513L40.1762 34.1608L40.3407 32.0144L41.9505 33.4425L44.045 32.9318L43.1795 34.9051L44.3133 36.74Z" fill="#7E7E7E"/>
<path fill-rule="evenodd" clip-rule="evenodd" d="M35.0352 45.317L33.2956 44.0447L31.2617 44.7544L31.9368 42.7032L30.6299 40.9895L32.785 40.9982L34.0139 39.2239L34.6717 41.2838L36.7402 41.8983L34.992 43.1619L35.0352 45.317Z" fill="#7E7E7E"/>
<path fill-rule="evenodd" clip-rule="evenodd" d="M22.6932 48L21.8364 46.018L19.7246 45.6026L21.3431 44.1745L21.0921 42.0368L22.9442 43.1359L24.9002 42.2358L24.4242 44.339L25.8955 45.9228L23.7405 46.1219L22.6932 48Z" fill="#7E7E7E"/>
<path fill-rule="evenodd" clip-rule="evenodd" d="M10.6888 44.0447L10.9658 41.907L9.35596 40.4702L11.4678 40.0721L12.3419 38.0901L13.3805 39.9856L15.5269 40.2019L14.0469 41.7685L14.5056 43.8803L12.5496 42.9629L10.6888 44.0447Z" fill="#7E7E7E"/>
<path fill-rule="evenodd" clip-rule="evenodd" d="M2.35449 34.5503L3.67869 32.8453L3.02092 30.7941L5.05483 31.5211L6.8031 30.2575L6.73386 32.4126L8.4735 33.6935L6.40499 34.2907L5.72991 36.3419L4.51821 34.559L2.35449 34.5503Z" fill="#7E7E7E"/>
<path fill-rule="evenodd" clip-rule="evenodd" d="M0 22.1392L1.99928 21.3429L2.4753 19.2311L3.86008 20.8929L6.00649 20.6938L4.85539 22.52L5.70358 24.502L3.61775 23.974L1.99063 25.3934L1.85214 23.2384L0 22.1392Z" fill="#7E7E7E"/>
<path fill-rule="evenodd" clip-rule="evenodd" d="M4.26709 10.2474L6.39618 10.5763L7.87618 9.0011L8.22237 11.1302L10.1697 12.0476L8.25699 13.0429L7.98003 15.1807L6.44811 13.6661L4.33633 14.0642L5.30567 12.1342L4.26709 10.2474Z" fill="#7E7E7E"/>
<path fill-rule="evenodd" clip-rule="evenodd" d="M13.9777 2.16373L15.6481 3.5312L17.7166 2.92536L16.9377 4.93329L18.1494 6.7162L15.9943 6.59503L14.6788 8.30004L14.1248 6.21421L12.0996 5.4872L13.9085 4.31879L13.9777 2.16373Z" fill="#7E7E7E"/>
</svg>
