<svg width="49" height="46" viewBox="0 0 49 46" fill="none" xmlns="http://www.w3.org/2000/svg">
<g clip-path="url(#clip0_138_327)">
<path fill-rule="evenodd" clip-rule="evenodd" d="M35.0721 30.1712L35.0815 27.786C34.8156 27.821 34.5368 27.8397 34.2532 27.8397C31.3908 27.8397 28.9885 25.951 28.4049 23.4429H33.4344V21.0543H28.4131C29.0096 18.5627 31.4038 16.6915 34.2532 16.6915C34.5368 16.6915 34.8168 16.6937 35.0885 16.7452L35.0838 14.3402C34.7968 14.3128 34.5473 14.3029 34.2532 14.3029C29.5461 14.3029 25.7061 17.8798 25.7061 22.2667C25.7061 26.6525 29.5449 30.2304 34.2532 30.2304C34.5332 30.2282 35.0721 30.2107 35.0721 30.1712Z" fill="#7E7E7E"/>
<path fill-rule="evenodd" clip-rule="evenodd" d="M19.7234 16.6904C20.007 16.6904 20.2893 16.6926 20.5576 16.7441L20.5529 14.3391C20.267 14.3117 20.0176 14.3018 19.7234 14.3018C15.0163 14.3018 11.1763 17.8787 11.1763 22.2656C11.1763 26.6514 15.0163 30.2293 19.7234 30.2293C20.0046 30.2293 20.5423 30.2118 20.5423 30.1723L20.5517 27.7871C20.2858 27.8221 20.007 27.8408 19.7234 27.8408C16.4293 27.8408 13.741 25.3371 13.741 22.2667C13.741 19.1941 16.4293 16.6904 19.7234 16.6904Z" fill="#7E7E7E"/>
<path fill-rule="evenodd" clip-rule="evenodd" d="M22.804 4.00763L24.2016 3.32362L25.5993 4.00763L25.3322 2.55848L26.464 1.53136L24.9005 1.3198L24.2016 0L23.5028 1.3198L21.9404 1.53136L23.071 2.55848L22.804 4.00763Z" fill="#7E7E7E"/>
<path fill-rule="evenodd" clip-rule="evenodd" d="M32.9497 5.83717L34.5285 5.89526L35.3709 7.13943L35.918 5.75934L37.4486 5.3965L36.2086 4.48558L36.3121 3.01779L34.998 3.83445L33.5321 3.28964L33.9591 4.70591L32.9497 5.83717Z" fill="#7E7E7E"/>
<path fill-rule="evenodd" clip-rule="evenodd" d="M40.7559 12.149L42.09 12.9338L42.1523 14.4038L43.3677 13.4644L44.8877 13.8634L44.303 12.4964L45.1794 11.2731L43.6041 11.3685L42.6265 10.2131L42.2371 11.6392L40.7559 12.149Z" fill="#7E7E7E"/>
<path fill-rule="evenodd" clip-rule="evenodd" d="M44.1276 21.2505L44.8618 22.5528L44.1265 23.8551L45.683 23.6062L46.7853 24.6608L47.0124 23.205L48.4289 22.5539L47.0124 21.9017L46.7865 20.446L45.6841 21.4994L44.1276 21.2505Z" fill="#7E7E7E"/>
<path fill-rule="evenodd" clip-rule="evenodd" d="M42.163 30.704L42.0995 32.174L40.7642 32.9588L42.2454 33.4696L42.6348 34.8958L43.6124 33.7404L45.1889 33.8369L44.3113 32.6124L44.8972 31.2466L43.3771 31.6445L42.163 30.704Z" fill="#7E7E7E"/>
<path fill-rule="evenodd" clip-rule="evenodd" d="M35.3875 37.9749L34.544 39.2191L32.9663 39.2772L33.9757 40.4085L33.5463 41.8247L35.0134 41.2799L36.3264 42.0977L36.224 40.6299L37.464 39.719L35.9346 39.355L35.3875 37.9749Z" fill="#7E7E7E"/>
<path fill-rule="evenodd" clip-rule="evenodd" d="M25.6181 41.1155L24.2204 41.7995L22.8227 41.1144L23.0886 42.5647L21.958 43.5918L23.5204 43.8033L24.2192 45.1231L24.918 43.8044L26.4816 43.5929L25.351 42.5658L25.6181 41.1155Z" fill="#7E7E7E"/>
<path fill-rule="evenodd" clip-rule="evenodd" d="M15.4718 39.2827L13.8942 39.2246L13.0518 37.9804L12.5047 39.3594L10.9741 39.7223L12.213 40.6332L12.1094 42.1021L13.4236 41.2854L14.8895 41.8302L14.4624 40.414L15.4718 39.2827Z" fill="#7E7E7E"/>
<path fill-rule="evenodd" clip-rule="evenodd" d="M7.66939 32.9698L6.33526 32.1827L6.2729 30.7128L5.05759 31.6533L3.53875 31.2532L4.12229 32.6201L3.24463 33.8435L4.82112 33.7481L5.7976 34.9046L6.1882 33.4784L7.66939 32.9698Z" fill="#7E7E7E"/>
<path fill-rule="evenodd" clip-rule="evenodd" d="M4.30123 23.866L3.56711 22.5638L4.30241 21.2615L2.74592 21.5092L1.64473 20.4558L1.41649 21.9115L0 22.5616L1.41531 23.2138L1.64237 24.6695L2.74474 23.6172L4.30123 23.866Z" fill="#7E7E7E"/>
<path fill-rule="evenodd" clip-rule="evenodd" d="M6.26937 14.4137L6.3329 12.9437L7.66822 12.1588L6.18702 11.648L5.79878 10.2219L4.81994 11.3761L3.24463 11.2797L4.12111 12.5041L3.53522 13.8699L5.05524 13.472L6.26937 14.4137Z" fill="#7E7E7E"/>
<path fill-rule="evenodd" clip-rule="evenodd" d="M13.0472 7.14488L13.8907 5.90072L15.4684 5.84372L14.4602 4.71137L14.8896 3.2951L13.4225 3.83881L12.1095 3.02106L12.2107 4.48994L10.9707 5.40086L12.5013 5.7637L13.0472 7.14488Z" fill="#7E7E7E"/>
</g>
<defs>
<clipPath id="clip0_138_327">
<rect width="48.4289" height="45.1231" fill="white"/>
</clipPath>
</defs>
</svg>
