<svg width="60" height="48" viewBox="0 0 60 48" fill="none" xmlns="http://www.w3.org/2000/svg">
<path d="M58.1857 18.9219C57.6198 17.4471 56.4708 16.1266 55.0646 15.1749C51.0089 12.6025 44.8268 12.4139 40.6425 14.7461C38.3617 15.9123 36.8612 18.2102 36.3982 20.5767C35.5493 24.4695 35.7723 29.0996 38.7733 32.0149C42.2717 35.076 47.3563 35.7534 51.8835 34.5015C52.0979 34.4586 52.7838 34.2871 53.2468 34.0385L53.3755 33.9785C54.7817 33.3954 56.1193 32.4436 57.1225 31.1575C59.4375 27.7878 59.5919 22.7289 58.1857 18.9219ZM50.8203 27.6591C50.6574 28.3965 50.1601 29.1597 49.3798 29.4426C48.1365 29.9914 46.4474 29.837 45.2898 29.194C44.3209 28.5166 44.2009 27.3848 44.0723 26.313C43.978 24.1951 43.8236 21.9572 44.4152 20.028C44.8783 18.8275 46.1644 18.5189 47.322 18.4331C48.5395 18.4331 49.7228 18.6218 50.4773 19.5992C50.9489 20.3023 50.9146 21.2198 51.0089 22.0515C50.9746 23.8007 51.129 25.8843 50.8203 27.6591ZM13.8219 29.5712C12.793 29.5112 11.6354 29.597 10.6408 29.4769L10.6751 18.7075L10.7351 18.6218L13.8219 18.5875C13.8562 16.8383 13.8819 14.9691 13.7876 13.3742L2.02355 13.3314L0.0857437 13.3657C0.0514462 14.9862 0.0514462 16.8897 0.0857437 18.5446C1.14897 18.5789 2.14359 18.5446 3.17252 18.6389V29.0653L3.13822 29.4941L0.0514462 29.5541C-0.0171487 31.2432 -0.0171487 32.9324 0.0514462 34.613H13.8219V29.5712ZM48.4709 36.928C47.159 38.7973 45.5042 40.615 43.7036 42.0212C43.635 42.1155 43.4549 42.0812 43.3949 41.9955C42.6146 41.5068 41.7658 41.1038 41.0198 40.615C42.023 39.4232 42.9919 38.2228 43.7379 36.9023H42.769C41.9973 38.0427 41.1827 39.2345 40.1538 40.2463C38.7819 39.6976 37.53 39.2088 36.1238 38.8316L35.9695 38.7115C36.1838 38.0942 36.5954 37.5111 36.7155 36.8937H35.8752L35.0349 38.5486C33.1914 38.1542 31.1678 37.9312 29.2901 37.8112C29.1957 37.5368 29.3158 37.1338 29.1957 36.8937H28.3812C28.3126 37.2624 28.4755 37.5368 28.2869 37.8455C26.349 37.9312 24.4798 38.1542 22.6706 38.5229L21.8218 36.8937C21.5131 36.8937 21.1616 36.8337 20.9472 36.928L21.7275 38.7372L21.6331 38.823C20.2355 39.226 18.855 39.7061 17.5089 40.2635L17.3888 40.2035C16.5142 39.2517 15.6654 38.2142 14.9794 37.1681C14.8251 36.6451 14.1992 36.9538 13.8562 36.8852C14.6022 38.2399 15.6054 39.4318 16.6 40.6579C15.7597 41.1466 14.9194 41.6954 14.0362 42.0984C12.1242 40.6407 10.4607 38.8916 9.10598 36.9109C8.72871 36.8509 8.48005 36.8766 8.10278 36.9109C10.3493 40.4092 13.8476 43.4789 17.5003 45.2881C17.5003 45.2881 17.5003 45.2623 17.5346 45.2623C17.5603 45.2623 17.6203 45.3224 17.5603 45.3481C20.0297 46.5485 22.6535 47.4059 25.4316 47.7746C35.0177 49.0351 44.1666 44.9537 49.4655 36.9109C49.1397 36.8937 48.8053 36.8937 48.4709 36.928ZM35.4636 39.689L35.5579 39.629C36.9041 39.9376 38.1817 40.3664 39.3649 40.9494C38.3617 42.0812 37.0842 43.0673 35.9009 43.8904C35.1806 44.3192 34.4604 44.7822 33.7144 45.1509L32.3768 44.5678L32.4711 44.3535C33.5858 42.8529 34.589 41.3181 35.4636 39.689ZM29.3072 38.7715C31.0907 38.8058 32.8656 38.9859 34.5204 39.3889L34.5547 39.4832C33.6801 41.1381 32.5912 42.7329 31.3993 44.2334C30.8677 44.2934 30.3704 44.0876 29.8388 44.0533L29.3072 43.9933C29.2472 42.1756 29.2129 40.5807 29.3072 38.7715ZM23.288 39.3203C24.9086 39.0116 26.5977 38.7715 28.3469 38.7715L28.3812 43.959C27.7209 44.1048 27.0093 44.1048 26.3833 44.2677C25.1058 42.7586 24.0425 41.1381 23.1422 39.4489L23.288 39.3203ZM18.2548 40.9751C19.4724 40.3921 20.75 39.9548 22.0619 39.6204L22.1905 39.6547C23.0908 41.3438 24.2226 42.9387 25.3458 44.5335C24.9086 44.7822 24.3769 44.9279 23.9396 45.1766C21.8304 44.1305 19.9097 42.7415 18.2548 41.0609V40.9751ZM22.2848 46.2227C19.661 45.5453 17.2259 44.3792 14.9794 42.7843V42.69C15.7254 42.2356 16.4799 41.7383 17.2859 41.4039C19.0694 43.1616 20.9043 44.4735 22.9021 45.7339C22.7564 45.914 22.4992 46.1026 22.2848 46.2227ZM33.8688 46.6171C30.5591 47.3288 26.8721 47.3545 23.5709 46.5571C23.5109 46.4027 23.7253 46.3684 23.8196 46.2827C26.7263 44.4135 31.245 44.4135 34.0917 46.4284C34.1774 46.6171 33.9288 46.5571 33.8688 46.6171ZM36.8612 45.7596L35.395 46.2141C35.1464 46.094 34.9234 45.9054 34.7091 45.7253L34.7691 45.631C36.7669 44.4735 38.5761 43.0587 40.291 41.3696C41.1313 41.704 41.9458 42.167 42.7004 42.69C40.9512 44.0791 38.9276 44.9965 36.8612 45.7596ZM9.04596 11.0077C9.81766 9.93592 10.6665 8.92414 11.5754 7.97239C12.3814 7.20927 13.1359 6.47187 14.0105 5.91454C14.8251 6.43757 15.7254 6.86629 16.5057 7.35503C15.5368 8.54687 14.5421 9.74728 13.8219 11.0334C14.0362 11.1278 14.4478 11.102 14.7565 11.0334C15.5368 9.90162 16.3771 8.7698 17.3803 7.74945C18.7179 8.23819 20.0297 8.76123 21.4102 9.12993L21.5302 9.24997L20.75 11.0249C21.093 11.0935 21.3159 11.0592 21.6503 11.0249C21.9332 10.5104 22.1476 9.92734 22.4563 9.40431C24.2655 9.8073 26.1776 10.0217 28.1068 10.0817C28.3554 10.296 28.1668 10.7591 28.2611 11.0334H29.1014C29.1957 10.7333 29.0671 10.3904 29.1957 10.116C31.0049 10.0217 32.9084 9.83303 34.6662 9.40431L34.8205 9.43861L35.6608 11.0334C35.9438 11.0334 36.3125 11.102 36.5354 10.9734L35.7551 9.19852L35.8237 9.1385C37.2556 8.7698 38.6018 8.22104 39.9737 7.66371C40.9426 8.67549 41.8429 9.8759 42.6575 11.0334C43.0005 11.0334 43.3434 11.0677 43.5921 10.9734C43.2063 10.2875 42.7604 9.64439 42.2459 9.04418C41.8344 8.45255 41.3713 7.90379 40.874 7.38933V7.22642L43.0605 5.97456L43.3777 5.85452C45.2813 7.29501 46.9447 9.01846 48.308 10.9734C48.6853 10.9734 48.994 11.102 49.3112 10.9477C45.1355 4.6884 38.2331 0.667021 30.782 0.0839641L30.7477 0.143985L30.6791 0.0839641C29.8388 -0.00177966 28.8099 -0.0360771 27.901 0.0496666C27.558 0.0239435 27.155 0.0496666 26.7435 0.0839641C19.258 0.667021 12.3557 4.49977 8.05134 11.0334C8.36001 11.0077 8.73729 11.1278 9.04596 11.0077ZM22.0018 8.30679L21.8732 8.33251C20.5956 7.99811 19.3438 7.59511 18.1519 7.07208L18.212 6.89202C19.9268 5.26289 21.736 3.91671 23.7339 2.87921C24.2055 3.05927 24.6685 3.21361 25.1401 3.43654L25.0457 3.67663C23.8711 5.15142 22.945 6.73768 22.0018 8.30679ZM28.2183 9.1385C27.3437 9.25854 26.5634 9.11278 25.6888 9.04418C24.8485 8.92414 23.7853 8.82982 22.945 8.55544C23.8539 6.87487 24.9171 5.24574 26.1947 3.74522L28.1925 4.0196C28.2783 5.60586 28.2183 7.44935 28.2183 9.1385ZM29.1872 9.16422C29.1271 7.53509 29.1614 5.7259 29.1872 4.03675C29.8131 3.95101 30.499 3.84811 31.125 3.76237C32.3425 5.29718 33.5344 6.86629 34.3404 8.54687C32.6512 8.95844 30.9192 9.16422 29.1872 9.16422ZM39.142 7.02063C37.9244 7.54367 36.6726 8.03241 35.335 8.31536C34.3661 6.68623 33.3029 5.06567 32.1196 3.49656C32.5569 3.25648 33.0885 3.07642 33.5601 2.82776C35.5922 3.83954 37.5557 5.28003 39.2106 6.93489L39.142 7.02063ZM35.1463 1.77312C37.7701 2.45049 40.2395 3.61661 42.486 5.21144L42.426 5.33148L40.2738 6.52332H40.1109C38.4561 4.86846 36.5268 3.42797 34.5547 2.29615C34.6147 2.08179 34.932 1.92745 35.1463 1.77312ZM33.9031 1.46444V1.53303C31.185 3.48799 26.7863 3.67663 23.9139 1.86743C23.751 1.74739 23.4423 1.68737 23.408 1.47301C26.7177 0.701319 30.6191 0.641298 33.9031 1.46444ZM14.8508 5.27146C16.8229 3.83096 19.0008 2.75917 21.3159 2.02177C21.4102 1.92745 21.4702 1.83314 21.5903 1.83314V1.89316C21.8389 1.95318 22.0276 1.6788 22.2419 1.85886C22.4306 2.02177 22.6535 2.14181 22.8078 2.28758C20.87 3.47942 18.9665 4.89419 17.2173 6.60906C16.3771 6.30896 15.5968 5.84594 14.8422 5.32291L14.8508 5.27146ZM28.244 29.8113C25.3115 30.6087 22.1219 30 20.004 27.7878C19.7554 27.4791 19.601 27.119 19.3438 26.8103L15.1338 26.836C15.0652 29.3226 15.0394 32.1778 15.1338 34.6301L19.8154 34.5958L19.8754 33.121C20.407 33.3697 20.9386 33.6698 21.4702 33.9442C24.7199 35.2989 28.8956 35.599 32.111 33.9442C34.4518 32.658 35.7037 30.1714 35.3607 27.5048C35.0177 24.8982 32.5226 22.5402 29.9932 21.8972L22.4391 19.7193L21.8818 19.4449C21.6331 19.2305 21.4788 18.9562 21.5388 18.6132C22.1305 17.6014 23.5109 17.9101 24.5399 17.9358C26.7263 18.2445 28.9728 18.9819 30.2504 20.9711C31.6223 20.9711 33.2171 20.9969 34.7091 20.9368C34.7691 18.4245 34.6833 16.2124 34.649 13.6658C33.2428 13.6315 31.528 13.6315 30.1218 13.7001C30.0617 14.0688 30.1818 14.5832 30.0274 14.9519L28.5955 14.1802C25.1572 12.7397 20.3556 12.5854 17.2345 14.8319C15.2024 16.2981 14.585 18.939 15.1166 21.2712C15.5196 23.4749 17.6461 25.104 19.6696 25.8671C22.4477 26.8446 25.3458 27.5563 28.1668 28.508C28.4498 28.6366 28.8185 28.911 28.7584 29.2454C28.7499 29.5369 28.4669 29.6913 28.244 29.8113Z" fill="#7E7E7E"/>
</svg>
