<svg width="56" height="48" viewBox="0 0 56 48" fill="none" xmlns="http://www.w3.org/2000/svg">
<path d="M32.0425 12.1828C31.107 11.8094 30.1172 11.5582 29.0986 11.4259C29.0949 11.5107 29.0949 11.5956 29.0913 11.6804C30.063 11.806 31.0058 12.047 31.898 12.4001C31.9486 12.3288 31.9992 12.2541 32.0425 12.1828ZM29.5031 17.9772L29.1455 17.9942L29.0372 18.1605H28.9649L28.9577 18.7036L29.3261 18.5475L29.5031 17.9772ZM30.7566 18.1945L30.6301 18.2793L30.576 18.2114L30.2364 18.7478L30.5398 18.6969L30.5579 18.4966L30.7891 18.2793L30.9661 18.13L30.8577 17.9942L30.7566 18.1945ZM31.1684 17.8924H31.4357L31.4898 17.7905L31.2587 17.7396L31.1684 17.6038L30.883 17.6208L31.0275 17.8041V18.0213L31.1684 17.8924ZM29.0227 25.8694L29.0588 26.0018L29.0408 26.0629C29.6223 25.7947 29.7054 25.6386 29.6982 25.5673C29.6801 25.3534 29.337 25.1294 28.8493 24.9122C28.8457 25.0751 28.8421 25.2211 28.8421 25.3534L28.9396 25.4519C28.9071 25.4655 28.8746 25.4756 28.8385 25.4858C28.8349 25.5843 28.8349 25.6759 28.8313 25.7574C28.8891 25.737 28.9468 25.7234 29.001 25.6997L29.0227 25.8694ZM29.2358 25.3127H29.2467C29.2394 25.3161 29.2322 25.3195 29.225 25.3229L29.2358 25.3127ZM18.8074 22.9739L18.9591 23.3541L18.8615 23.4797L18.9013 23.6766L18.8435 23.9651L18.7279 24.0364L18.9193 24.5048L18.9771 24.4879L18.9193 24.0737L19.0747 23.3711L18.9591 23.0112L18.8074 22.9739ZM18.9627 24.5999L18.8868 24.6542L18.829 24.7255L18.6954 24.4539L18.6376 24.5082L18.6954 24.7424L18.7712 24.8884L18.7134 24.9767L18.8688 25.1566L18.9663 25.3534L19.0422 25.3365L19.0602 25.031L18.9844 24.868L18.9627 24.5999ZM28.7193 33.0997C28.7193 33.1031 28.7193 33.1065 28.7193 33.1099C28.7265 33.1099 28.7301 33.1099 28.7373 33.1099C28.7337 33.1031 28.7265 33.0997 28.7193 33.0997ZM25.7392 18.7885L25.7609 18.9005C25.5225 19.0125 25.3021 19.1483 25.0962 19.3011C25.0926 19.5658 25.2046 19.8442 25.4141 20.1022C25.5044 20.2108 25.6092 20.3058 25.7464 20.3941L26.1257 20.2379L26.0968 18.7036L25.9668 18.7172L26.0065 18.5373L26.0896 18.4151L26.086 18.259L26.0029 18.3201L25.8295 18.5713L25.7392 18.7885ZM25.7573 19.24L25.7428 19.1924C25.75 19.1891 25.7573 19.1857 25.7609 19.1823L25.7573 19.24ZM18.3884 13.9547C18.4028 13.8427 18.4281 13.7443 18.4534 13.6594L18.298 13.5135C18.1825 13.5372 18.0633 13.5508 17.9477 13.544L18.3884 13.9547ZM24.5941 23.5238C24.5147 23.4967 24.4352 23.4661 24.3593 23.439L24.3774 23.6426L24.5941 23.5238ZM24.3521 23.4356C24.2979 23.4152 24.2474 23.3948 24.1932 23.3745L24.1643 23.6969L24.3521 23.4356ZM38.028 23.7173L37.5259 23.887L37.6523 24.0703L38.0099 24.1043L38.028 23.7173ZM45.2813 15.1937C44.3096 13.0348 42.9189 11.0966 41.1489 9.43329C39.3789 7.76999 37.3163 6.46311 35.019 5.54999C33.202 4.82696 31.2984 4.37889 29.3406 4.20917C29.3261 4.30082 29.3117 4.38229 29.3008 4.46036C31.237 4.63008 33.119 5.07137 34.9142 5.78421C37.1574 6.67696 39.173 7.9499 40.9105 9.56907L38.6926 11.6533L38.689 11.5039L38.5084 11.5209L38.288 11.4191L37.9593 11.3342L38.4145 11.2663L38.3242 11.1475H38.0677L38.1399 10.9608L37.9196 10.4482L37.338 9.77953L36.7745 9.43668L36.4639 9.26696L36.2255 9.31787V9.1821L35.68 8.95806L35.4633 9.14815C35.8642 9.78971 36.0701 10.4516 36.1063 11.0389C36.1352 11.4903 36.1135 11.9214 36.0412 12.3322L36.2255 12.2303L36.8106 13.2249L36.4097 13.2589L36.695 13.5372L36.0196 14.1754L35.6728 13.7681L35.7053 13.4659C35.6114 13.6764 35.503 13.8767 35.3802 14.0736L35.4235 14.155L35.8534 14.2059L35.8967 14.2942L35.6909 14.4877C35.5716 14.3757 35.4488 14.2704 35.3224 14.1618C35.2754 14.2331 35.2249 14.3044 35.1707 14.3757C35.2827 14.4707 35.391 14.5658 35.4994 14.6676L32.9925 17.0234C32.7866 16.8333 32.5699 16.6568 32.3423 16.487C32.252 16.5278 32.1581 16.5651 32.0642 16.6025C32.3243 16.7858 32.5699 16.986 32.8011 17.1999L32.4796 17.502L32.476 17.4952L32.5302 17.3289L32.2809 17.3968L32.0136 17.3628V17.1625L31.7283 17.3289L31.4248 17.597L31.5693 17.6819L31.8727 17.4952L32.1762 17.597V17.648L32.3784 17.6004L31.6777 18.259L30.8541 18.4219L30.6229 18.707L30.464 18.8089L30.4459 18.9582L30.5723 18.9413L30.6988 19.0431L30.6735 19.2094L30.6121 19.2671L30.4134 19.2264L29.9402 19.2977C29.8499 19.2332 29.756 19.1687 29.6585 19.111L29.6259 19.077L29.4778 19.0091C29.3117 18.9209 29.1383 18.8428 28.9577 18.7783L28.9432 19.7356C28.9396 20.0377 28.9324 20.3228 28.9288 20.5978L29.0408 20.5468L29.1383 20.6351L28.9288 20.832C28.9252 20.9576 28.9252 21.0764 28.9216 21.1952L29.3225 20.8184L29.2394 21.0832L29.355 21.1205L29.4381 21.5245L29.6657 21.7349L29.1311 21.4668L29.0877 21.6568C29.7885 21.925 30.7421 22.3188 31.5187 22.8653C32.6927 23.6935 33.296 24.8409 33.1334 25.9373C33.0142 26.7282 32.5266 27.4037 31.7355 27.8959L31.7572 27.9808L31.5982 28.1641L31.3128 28.198L31.2045 28.3678L30.6518 28.585L30.1533 28.568L30.0088 28.7683L30.0991 28.9041H30.0955C30.0269 28.9278 29.9619 28.9482 29.8932 28.9686L29.5429 29.0025L29.4526 28.8667L29.0588 28.9177H29.0552C28.9794 28.9414 28.9107 28.9652 28.8385 28.9889V29.2503C28.8385 29.3284 28.8204 29.9224 28.7951 30.7711C30.0666 31.3685 31.6416 32.3495 31.5729 34.9531C31.5729 34.9531 31.544 35.4283 31.3995 35.7711L31.4032 35.7745L31.9522 35.9239C30.8758 36.2328 29.756 36.4263 28.6109 36.5043C28.6073 36.5892 28.6037 36.6775 28.6037 36.7589C29.8066 36.6809 30.9877 36.4738 32.1292 36.1377L32.3676 36.2124L32.6169 36.4127L32.9239 36.3007L33.4043 36.1954L33.5994 36.0291L34.134 35.8119L34.6686 35.4588L35.2754 34.8886L35.3043 34.8207C36.388 34.2232 37.3958 33.507 38.3061 32.6754L40.8057 35.0243C39.0936 36.5994 37.1141 37.8418 34.9142 38.7176C32.5699 39.651 30.0811 40.1229 27.5128 40.1229C24.9445 40.1229 22.4557 39.651 20.1114 38.7176C17.9079 37.8418 15.9284 36.596 14.2126 35.021L16.7123 32.672C18.0994 33.9449 19.7068 34.9497 21.4876 35.6591C23.0842 36.2939 24.7675 36.6639 26.4978 36.7691C26.4942 36.6876 26.4905 36.6028 26.4905 36.5145C22.8819 36.2905 19.5154 34.8852 16.9037 32.4955L17.4347 31.9965L17.8863 32.3665L18.8254 32.2952L19.2083 31.9354L19.7249 31.9523L20.2053 32.0066L20.4545 31.8267L20.4365 31.6095L20.1692 31.321L19.8441 30.7269L19.519 30.6013L19.3167 30.2313L19.4395 30.1159C21.3468 31.8471 23.7742 32.8994 26.3894 33.1336C26.3858 33.0488 26.3858 32.9639 26.3822 32.879C23.8428 32.6448 21.484 31.6197 19.631 29.936L22.1378 27.5836C22.7989 28.1709 23.5683 28.6563 24.4135 28.9991C24.4316 28.9143 24.4569 28.8328 24.4858 28.7479C23.6839 28.4153 22.9542 27.9604 22.3293 27.4037L24.8578 25.0276C25.2516 25.3636 25.7211 25.6216 26.2341 25.7879L26.2305 25.5198C25.7934 25.3636 25.3924 25.1362 25.0493 24.8477L25.2154 24.6915L25.3057 24.6881L25.4575 24.5456L25.797 24.5863L25.9921 24.4845L26.2088 24.4641L26.2016 24.0432L25.4286 23.8056L25.3997 23.8293L25.0818 23.8802L24.8542 24.179L24.7567 24.5591L24.7603 24.5829C24.446 24.2536 24.1968 23.8701 24.0379 23.4457L24.0595 23.3371C23.8283 23.2387 23.6152 23.1334 23.4165 23.0214L23.2432 23.0825L23.0517 22.9739L22.7627 23.0825L22.611 22.9569L22.7844 22.794L23.012 22.7499C22.2209 22.1966 21.7441 21.4905 21.4949 20.5502C21.3468 19.9834 21.3034 19.4368 21.3504 18.9141L20.9964 19.0397L20.7724 19.0635C21.0072 18.629 21.289 18.2182 21.6104 17.8414C21.726 17.5461 21.8705 17.2644 22.0547 16.9962C22.0475 17.003 22.0367 17.0098 22.0295 17.0166L19.5226 14.6608C21.2709 13.0314 23.4852 12.0029 25.8801 11.6804C25.8801 11.5956 25.8765 11.5107 25.8765 11.4259C23.4093 11.7517 21.13 12.804 19.3311 14.4809L18.7279 13.9174C18.7279 13.9208 18.7243 13.9208 18.7243 13.9242C18.6773 14.0158 18.6376 14.0973 18.6087 14.1652L19.1469 14.6676C17.0518 16.7077 15.8959 19.3757 15.8887 22.2169H12.3018C12.309 18.4762 13.837 14.9595 16.6075 12.2847L17.5937 13.2114C17.6623 13.2181 17.7382 13.2215 17.8176 13.2181C17.8646 13.2147 17.9115 13.208 17.9585 13.1978L16.7918 12.1014C17.572 11.3749 18.4245 10.7368 19.3275 10.1937C19.3781 10.0511 19.4467 9.90852 19.5334 9.77274C18.4714 10.3736 17.4925 11.0898 16.6003 11.9214L14.1007 9.57246C15.8381 7.9499 17.8574 6.67357 20.1042 5.78082C21.8886 5.07137 23.7597 4.63008 25.6814 4.46036L25.6417 4.20917C23.6947 4.38229 21.8019 4.83036 19.9958 5.54999C17.6984 6.46311 15.6358 7.76999 13.8659 9.43329C12.0959 11.0966 10.7052 13.0348 9.73349 15.1937C8.72929 17.4273 8.21997 19.8001 8.21997 22.2475C8.21997 24.6949 8.72929 27.0677 9.73349 29.3012C10.7052 31.4601 12.0959 33.395 13.8659 35.0617C15.6358 36.725 17.6984 38.0319 19.9958 38.945C22.3726 39.8887 24.8976 40.3707 27.502 40.3707C30.1064 40.3707 32.6313 39.892 35.0081 38.945C37.3055 38.0319 39.3681 36.725 41.1381 35.0617C42.9081 33.3984 44.2988 31.4601 45.2704 29.3012C46.2746 27.0677 46.784 24.6949 46.784 22.2475C46.7948 19.8001 46.2855 17.4273 45.2813 15.1937ZM16.7123 32.3088C16.445 32.0542 16.1921 31.7894 15.9465 31.5212L16.1813 31.6163L16.4125 31.4907L17.0446 31.8709L17.1494 31.9014L16.7123 32.3088ZM17.1205 24.3283L16.7159 24.42L16.5425 24.257L16.4269 24.1857L16.3222 24.0534C16.2282 23.534 16.1741 23.0079 16.1632 22.4715H17.6767L17.6551 22.5428L17.4456 22.8857L17.3119 22.9026L17.0627 23.6596L17.2938 24.0024L17.1205 24.3283ZM18.2511 29.0908L18.2114 29.0025L18.4028 29.0331C18.4389 29.0772 18.4787 29.1213 18.5148 29.1655L18.2511 29.0908ZM19.1866 29.9835L19.0422 29.7188C19.1108 29.7866 19.1794 29.8579 19.2481 29.9258L19.1866 29.9835ZM19.4395 29.7459C19.2155 29.5355 19.006 29.3148 18.8074 29.0908H18.811L18.9266 28.7106L18.9085 28.2761L18.5437 27.6821V27.0677L18.41 26.6705L18.5076 26.5076L18.1247 25.8592L18.1644 25.625L17.9513 25.2448L17.7418 25.1905L18.0885 25.1362L17.991 25.0106L17.7598 24.5422L17.3553 24.4335L17.4528 24.128L17.2975 23.6426L17.4889 23.2285L17.9693 23.1912L18.103 22.9739L18.0524 22.4681H18.3558L18.5437 22.5224L18.7749 22.6311L18.7676 22.4681H19.7068C19.714 22.6956 19.7321 22.9196 19.761 23.1436L19.7502 23.1538L19.537 23.1368L19.23 23.4627L19.5009 23.517L19.7899 23.3541C20.0427 24.9156 20.8158 26.3175 21.9428 27.3935L19.4395 29.7459ZM18.3884 21.9454L18.4859 21.3513L19.006 21.1001L19.6201 21.2461L19.7502 21.4668C19.7213 21.7146 19.7068 21.9657 19.7032 22.2203H18.7604L18.7568 22.149L18.3884 21.9454ZM21.0758 23.7682L21.4407 23.9108L21.6899 24.1993L21.8055 24.128L22.2281 24.3826L22.3835 24.5625L22.0945 24.4539L22.0367 24.5625L22.2859 24.6881L22.5532 24.8884V24.7628L22.4954 24.5659L22.611 24.386L22.7447 24.3147L22.4774 24.0092L22.7844 24.1552L22.9759 24.3894L23.1095 24.7153L23.3768 24.7696L22.8025 24.8612L23.012 25.2957L23.2034 25.3127L23.2432 25.1328L23.1854 24.9156L23.4346 24.8986L23.6261 24.5897L23.7019 24.1382L23.8356 24.0839L23.9548 23.9074C24.139 24.2536 24.3738 24.5727 24.6555 24.8477L22.127 27.2238C21.0253 26.1681 20.2703 24.7934 20.0391 23.2624L20.1836 23.276L20.664 23.7275L21.0758 23.7682ZM20.5954 19.4233C20.6171 19.3757 20.6388 19.3316 20.6604 19.2841L20.7291 19.2739L20.6532 19.4199L20.5954 19.4233ZM19.3384 14.8475L21.8452 17.2033C21.2673 17.7769 20.7869 18.4355 20.4292 19.1585L20.292 19.1347L20.4076 18.9922L20.1186 19.2264L19.8874 19.369L19.8296 19.2773L19.4251 19.4233L19.4431 19.5658L19.6526 19.4402L20.0175 19.4233L20.3389 19.3418C20.3209 19.3791 20.3028 19.4165 20.2884 19.4538L19.8657 19.7322L19.7682 19.6405L19.2697 19.9834L18.829 19.9121L18.5401 20.2379L18.0994 21.1579L18.1752 21.409L17.8104 21.8605L17.7526 22.2034L17.749 22.2203H16.1596C16.1668 19.4436 17.2938 16.8367 19.3384 14.8475ZM15.8959 22.4681C15.9068 22.9807 15.9573 23.4899 16.0404 23.9889L15.8526 23.8938V24.128L15.7189 24.0737L15.6033 23.8938L15.336 24.0024L15.2963 24.2197L14.6822 25.1023L14.5088 25.1396L14.433 26.6196L13.9887 26.8165L13.855 26.7622L13.6455 26.8538L13.147 26.8165L13.0928 26.7961C12.6016 25.4179 12.3343 23.9617 12.309 22.4681H15.8959ZM9.99357 15.2922C10.9219 13.2249 12.2476 11.3648 13.92 9.75576L16.4197 12.1048C15.0687 13.4082 13.9995 14.912 13.2482 16.5855C12.4463 18.371 12.0381 20.2651 12.0309 22.2169H8.49811C8.50534 19.817 9.00743 17.485 9.99357 15.2922ZM9.99357 29.2028C9.03272 27.0677 8.53423 24.8035 8.50534 22.4715H12.0381C12.0598 23.9447 12.3162 25.3806 12.7966 26.7622L12.533 26.9285L11.843 26.5687L11.6877 26.7146L11.4962 26.623L11.3807 26.7146L11.4565 26.9489L11.0519 26.9319L10.8208 26.8063L10.8388 26.6094L10.781 26.4465H10.6654L10.6835 26.6264L10.6654 26.735L10.5679 26.6977L10.2862 26.8165L10.4776 26.9624L10.2284 26.9081L10.1128 27.0337L10.2464 27.088H10.073V27.3596L10.1489 27.5056L10.2464 27.5768H10.0911L10.167 27.8111L10.3223 27.8654L10.3765 27.9536L10.4776 28.1166L10.5354 28.2591L10.1886 28.0622L10.3223 28.4051L10.0911 27.9367V28.2422L10.3006 28.7106L10.4776 29.1077L11.0158 30.0989L10.958 29.8987L10.5354 28.9414V28.5816L10.7485 28.2557L11.4385 29.0331L11.536 28.9618L11.4204 28.473L11.554 28.5612L11.7636 28.9041L12.1103 28.9923L12.2656 29.2096L12.3993 29.2266L12.2837 28.9652L12.3993 28.8192L12.5149 29.1994L12.7641 29.5796L12.9953 29.5422L13.6094 30.5165L13.9562 30.6081L14.0537 30.211L14.1873 30.3739L14.7075 31.0766L15.3541 31.2395C15.7189 31.674 16.109 32.0915 16.5281 32.4887L14.0284 34.8376C12.2982 33.2049 10.9436 31.3108 9.99357 29.2028ZM41.0983 9.74897C42.778 11.358 44.1037 13.2215 45.0356 15.2922C46.0218 17.485 46.5239 19.817 46.5275 22.2169H42.9947C42.9911 20.2651 42.583 18.3676 41.7774 16.5855C41.7016 16.4124 41.6149 16.2426 41.5318 16.0729L41.6221 15.893L41.8244 16.0118L41.8966 15.8047L40.7118 13.9887L40.4554 13.9208L38.7034 12.0369V11.9995L41.0983 9.74897ZM35.8787 14.654L36.1857 14.9731L36.3483 14.5047L36.099 14.4707V14.4503L36.8793 13.7171L37.3922 14.2161L37.8835 14.1822L38.046 14.4402L38.1002 14.8339L39.0827 15.3838L39.3572 15.3499L40.0147 16.0525L40.1592 16.4124L40.6143 16.857L41.1417 16.8401L41.3765 16.375C42.2506 18.1911 42.713 20.1735 42.7166 22.2237H39.1297C39.1297 21.5822 39.0647 20.9542 38.9491 20.3364L39.1116 20.0988H39.2019L39.397 19.3113L39.2525 19.2773L39.2886 19.1449L38.931 19.1619L38.8588 19.077L38.7865 19.2298L38.9996 19.3961L38.8407 19.447L38.7793 19.5964C38.6926 19.2739 38.5915 18.9548 38.4759 18.6425L38.6782 18.3574L38.624 18.0213L38.447 17.9874L38.3747 17.6174L38.4831 17.5325L38.288 17.2813L37.9485 17.3153L37.8365 17.244C37.7606 17.1082 37.6848 16.9758 37.6017 16.8435H37.9485L37.8762 16.6771L38.1074 16.6092V16.4395L37.9485 16.4225L37.7173 16.5923L37.6451 16.5244L37.8401 16.2392L37.6812 16.1374L37.4861 16.4056L37.2477 16.2936C37.0599 16.022 36.854 15.7572 36.6409 15.5026L36.6481 15.4347L36.6156 15.4721C36.3808 15.1937 36.1315 14.929 35.8642 14.671L35.8787 14.654ZM36.7601 21.1986L37.2585 20.8965L37.8654 20.8456L38.028 20.5265L38.223 20.4246L38.4903 19.9868L38.5553 19.7627C38.577 19.8442 38.5951 19.9291 38.6131 20.0105L38.5084 20.2719L38.5445 20.3398L38.4 20.6079L38.4181 20.7437L38.1327 21.1137L38.1869 21.3479L38.2953 21.3649L38.5806 20.944V20.6928L38.7251 20.6589L38.7396 20.6385C38.8226 21.1545 38.866 21.6806 38.866 22.2135H36.164L36.0954 22.1694L36.1135 21.9691L36.3447 21.8843L36.5217 21.6501L36.9515 21.5991V21.4328L36.7601 21.1986ZM37.4753 16.5651L37.4681 16.6058C37.4536 16.5821 37.4392 16.5617 37.4247 16.538L37.4753 16.5651ZM35.68 14.8407C35.9473 15.1021 36.2002 15.3736 36.435 15.6554L36.2905 15.7301L36.1279 15.764L36.3772 15.8319L36.4928 15.7369C36.6047 15.8726 36.7131 16.0118 36.8179 16.151H36.6987V16.2189L36.8251 16.2528L37.2008 16.8061L37.3055 16.8536C37.3489 16.9249 37.3922 16.9962 37.4319 17.0675V17.2915L37.1827 17.5427L37.1105 17.3594L36.8973 17.3255L36.9876 17.5427L36.8287 17.6955L37.2224 17.8313L37.385 18.0485L37.7065 18.1334L37.7245 18.2691L38.0099 18.337L38.0641 18.758L38.2375 18.7342C38.3386 19.0057 38.4253 19.2807 38.5012 19.5591L38.4939 19.5624L38.3133 19.8476L38.0641 19.9664L37.8871 20.4552L37.4211 20.7064L37.2622 20.4382L37.4067 19.8001L37.6198 19.6473L36.9046 19.1279L36.5289 19.3113L36.1893 19.9664L35.8317 19.7831L35.7234 19.5149L35.9184 19.4301L36.0087 19.5489L36.1713 19.498L36.1171 19.2977L35.8859 19.2298L35.904 19.3656H35.745L35.5644 19.1144L35.1526 18.7274L34.6686 18.4083L34.2207 18.3744L34.1773 18.4321C33.8884 17.9908 33.556 17.5801 33.1767 17.2067L35.68 14.8407ZM32.7866 17.5597L32.9853 17.373C33.0575 17.4443 33.1298 17.519 33.1984 17.5936L32.9709 17.7769L32.7758 17.76L32.7035 17.6921L32.8625 17.5902L32.7866 17.5597ZM32.7939 19.1517L33.0973 19.0499L32.7577 18.8326L32.9528 18.6154L32.9167 18.4966L33.2382 18.3608L32.9347 18.0247L32.5771 18.3302L32.5229 18.5475L32.2918 18.4457L32.0425 18.4796L31.9703 18.3302H31.9667L32.5446 17.7871L32.5952 17.8448L33.0937 17.8618L33.2634 17.6717C33.5055 17.9365 33.7222 18.2216 33.9209 18.5203H33.9173L33.668 19.0227L33.2743 18.8224L33.1659 18.8394L33.2743 19.0397L33.4007 19.1246L33.2743 19.4097L33.2201 19.2739L32.7939 19.1517ZM35.0623 28.6223L34.4699 29.0636L34.3832 29.1281L34.329 29.0433H34.0437L33.6319 29.1247L33.2382 28.9754H33.0431L32.7397 28.7581L32.5446 28.7751L32.3676 28.6223L32.0822 28.6054L31.9378 28.4221L31.8113 28.3779C31.8186 28.3711 31.8294 28.3678 31.8366 28.361L32.0064 28.3881V28.3033L32.4182 28.3711L32.5627 28.456L33.0106 28.5239L33.0467 28.6257H33.4043L33.8884 28.7581L34.0256 28.972L34.3146 28.9584L34.5277 28.7411L34.7047 28.4051L34.972 27.75L34.9178 27.6345L35.0443 27.5157L35.1526 27.1118L35.0804 26.9421L35.1707 26.8063L35.0443 26.6535L35.0081 26.2496L34.7047 26.3175L34.5277 26.5517L34.2604 26.5347L34.2965 26.8368L34.0834 27.088L33.9064 27.0032L33.7439 27.1356L33.3321 27.1695L33.314 27.1559C33.4043 27.0609 33.491 26.9658 33.5777 26.8674H33.7619L33.9606 26.8334L34.1557 26.6332L34.1918 26.4736L34.3868 26.4634L34.7625 25.9441L35.0659 25.3399L35.8715 24.9868L35.8534 24.7866L35.745 24.6847L35.7992 24.6168L36.0485 24.7323L36.5831 24.8341L37.0129 24.6678L37.7101 24.532L37.5295 24.0635L37.226 23.7784L36.8468 23.7682L36.3627 22.6752L36.2905 22.7261L36.1135 22.5903L36.258 22.5055L36.2507 22.4647H38.8624C38.801 25.2143 37.6451 27.7907 35.5825 29.7493L35.503 29.6746L35.5283 29.5898L35.6186 29.1689L35.5283 28.5137L35.3658 28.1267L35.2574 28.2286L35.0623 28.4967V28.6223ZM35.4669 34.4303L35.4741 34.4167L35.6005 34.2165L35.4741 33.911L35.9401 33.541L35.904 33.2898L35.5644 33.1234L35.904 32.5022L36.2977 31.898L35.8317 31.3617L35.6692 31.4126L35.4561 31.3617L35.261 30.9577L35.1707 30.9917L35.2791 30.6047L35.3477 30.3128C35.4272 30.2449 35.5066 30.1804 35.5825 30.1125L37.1285 31.5654L37.1357 31.5789L37.1466 31.5823L38.1183 32.4955C37.3019 33.2355 36.4097 33.8804 35.4669 34.4303ZM37.9882 32.0134L38.0099 31.8946L38.1869 31.7419L38.028 30.9849L38.0641 30.7846L37.8871 30.4655L37.7787 30.3637L37.8871 30.3467L37.7426 30.1634L37.403 30.1465V30.3977L37.2766 30.4995L37.3669 30.6998L37.2224 31.0867L37.1141 31.1546L37.1538 31.2327L35.7667 29.9292C37.8799 27.9231 39.0683 25.2822 39.1261 22.4681H42.713C42.6516 26.1851 41.0947 29.6712 38.3025 32.3155L37.9882 32.0134ZM45.032 29.2028C44.082 31.3142 42.7238 33.2117 40.9972 34.8444L38.4975 32.4955C39.8991 31.1682 41.0044 29.6271 41.7774 27.9095C42.5541 26.1851 42.9586 24.3555 42.9875 22.4715H46.5203C46.4914 24.8035 45.9929 27.0677 45.032 29.2028ZM30.4351 35.0345L30.4531 35.0413C30.4495 35.0345 30.4459 35.0243 30.4459 35.0176L30.4351 35.0345ZM36.2616 8.78155L36.4639 8.91733L36.9371 9.07008L37.0996 9.34503H37.226L37.1899 9.0531L37.0454 8.95127L37.0816 8.79852L36.789 8.67971L36.6806 8.78155L36.5361 8.71366L36.6084 8.5609L36.2616 8.78155ZM11.9731 30.8593L11.955 30.6964L11.7636 30.4791L11.648 30.5165L11.8575 30.7677L11.8394 30.8389L12.0128 31.0188L12.1284 31.2531L12.2259 31.2157L12.1284 31.0188L11.9731 30.8593ZM35.7559 13.3268C35.7414 13.3607 35.7306 13.3981 35.7125 13.432L35.8462 13.527L35.9907 13.4761L35.7559 13.3268ZM38.8515 17.003L38.9599 17.0539L38.6926 16.5515L38.5481 16.5176L38.6926 16.7348L38.8515 17.003ZM38.046 15.8285L38.3314 16.2494L38.5084 16.3343L38.205 15.8489L38.046 15.8285ZM39.0827 18.2284L39.2453 18.4966L39.1911 18.5984L39.332 19.0499L39.4584 19.0838V18.5984L39.3139 18.4287L39.2597 17.9263L39.0105 17.3153L38.9599 17.4239L39.0285 17.7735L39.0827 18.2284ZM34.9178 18.1945L35.0081 18.0281L34.6144 18.0451L34.4374 18.1639L34.6325 18.2318L34.9178 18.1945ZM37.8473 15.3567L38.028 15.523L38.1183 15.506L38.2627 15.5909L38.2266 15.4891L37.869 15.2548L37.6378 15.0546L37.7462 15.3567H37.8473ZM36.099 16.8502L36.3121 16.9996L36.5614 16.9487L36.3663 16.8978L36.3121 16.6975V16.5447L36.2038 16.3614L36.0593 16.4124L35.9871 16.3614L35.7739 16.5447L36.1135 16.7145L36.099 16.8502ZM35.615 17.7735L35.7053 17.8245L35.8137 17.6751L35.9726 17.4069L35.8823 17.4239L35.7378 17.4918L35.6656 17.1048L35.5753 17.1727L35.6475 17.4069L35.5572 17.5902L35.4308 17.5563L35.2682 17.6581L35.2863 17.9093L35.615 17.7735ZM35.7053 16.8027V16.5991L35.5789 16.7518L35.615 16.9351L35.7053 16.8027Z" fill="#7E7E7E"/>
<path d="M21.2783 47.6417L22.6907 47.7741C22.6907 47.7741 24.4932 44.0469 29.0337 43.8704C31.9488 43.755 34.4954 45.1263 37.5983 45.3368C41.3261 45.5914 43.8727 44.8514 46.0039 42.9437C43.7499 44.1114 41.0877 43.6056 38.0137 42.9437C36.0125 42.5126 33.9608 42.3327 32.4401 42.3463C25.3818 42.4108 21.2783 47.6417 21.2783 47.6417Z" fill="#7E7E7E"/>
<path d="M42.5831 35.3434C41.922 35.9646 41.037 36.7827 40.1773 38.5173C39.3429 40.2009 39.3321 40.8798 38.5229 42.1086C40.3688 41.4603 41.7342 42.7095 46.3867 41.0903C48.5396 40.3435 50.0712 38.4358 50.7792 36.7827C49.1248 38.188 47.7847 38.9043 45.8124 39.1758C43.869 39.444 42.63 39.5662 41.0045 40.4623C42.0232 39.444 42.4061 38.8771 42.9479 37.5295C43.5295 36.0868 43.4356 34.8444 44.093 33.731C43.6198 34.2911 43.2441 34.7222 42.5831 35.3434Z" fill="#7E7E7E"/>
<path d="M44.9274 33.1845C44.4434 35.5539 44.5879 37.5363 43.2983 39.0536C45.0141 37.7128 46.6902 37.7196 48.9984 36.7488C51.7509 35.4758 53.203 33.2524 53.9652 30.0175C53.3547 31.4466 51.7907 32.7976 50.0496 33.8193C48.5649 34.6917 46.9792 35.1194 45.8775 36.3923C46.5132 35.6727 46.683 35.3231 46.8239 34.522C47.2718 32.3291 46.5277 31.0833 46.8817 28.7921C46.5204 29.7391 45.2417 31.6604 44.9274 33.1845Z" fill="#7E7E7E"/>
<path d="M47.5427 26.2224C47.3657 29.936 48.984 30.6998 47.8209 34.1146C48.8395 32.7399 50.046 32.3257 51.6101 31.0324C53.5571 29.4166 55.1645 26.9726 55.0164 23.6732C54.648 24.5965 53.4884 26.365 52.2133 27.621C50.9382 28.8769 49.869 30.3841 49.3163 31.4194C50.5878 27.3155 48.3121 25.754 48.0376 23.2896C47.9654 24.2231 47.6042 25.6046 47.5427 26.2224Z" fill="#7E7E7E"/>
<path d="M48.3013 22.0031C47.9545 20.798 48.1026 20.0818 47.8064 18.7274C48.3302 19.9358 51.3861 22.071 51.0682 26.1885C51.2416 25.4349 51.8665 23.1504 52.7551 21.5516C53.4559 20.2957 54.1675 19.0397 53.9977 17.1829C54.8033 19.6303 54.7635 21.0424 54.4131 22.2712C54.0628 23.4967 53.1886 24.4403 52.4373 25.4111C51.946 26.0527 50.8985 27.3019 50.4 28.4628C50.4361 25.9441 48.7528 23.5815 48.3013 22.0031Z" fill="#7E7E7E"/>
<path d="M47.3259 16.5074C46.7516 15.4755 46.5276 14.6235 45.7871 13.3166C46.2459 13.8767 46.6432 14.1788 47.7883 15.0885C49.3632 16.3445 50.5588 17.7532 51.1801 20.0954C51.2271 18.6358 51.4149 17.76 51.7364 16.134C52.0218 14.6676 51.9459 12.9907 51.2271 11.1373C52.6178 12.7192 53.8134 15.8353 53.138 17.9297C52.6034 19.9189 51.6859 20.9236 51.4185 22.329C50.483 19.5217 48.1134 17.9195 47.3259 16.5074Z" fill="#7E7E7E"/>
<path d="M48.081 13.9072C47.3839 13.3811 45.6392 12.3593 44.7867 11.4157C43.9342 10.4754 43.5008 9.57585 42.9011 8.7476C44.1618 9.83384 44.8481 10.1563 46.1304 10.8997C47.2936 11.5243 48.8685 12.3661 49.5042 13.6866C49.1213 12.692 48.9299 11.3783 48.8035 10.2683C48.612 8.61861 47.8968 7.61384 47.3694 7.00623C49.0852 8.30292 50.1255 9.39934 50.5843 11.7347C51.043 14.0702 50.5193 15.8353 50.6963 17.0913C49.7896 15.394 48.7782 14.4334 48.081 13.9072Z" fill="#7E7E7E"/>
<path d="M48.3916 11.4666C47.6258 9.31109 46.8275 8.02797 45.2706 6.79917C43.2297 5.19018 41.066 4.43321 40.2063 4.04623C41.8751 5.16642 41.7884 6.13385 44.01 8.10265C45.751 9.64035 46.972 9.76255 48.3916 11.4666Z" fill="#7E7E7E"/>
<path d="M33.7476 47.6417L32.3352 47.7741C32.3352 47.7741 30.5327 44.0469 25.9921 43.8704C23.0771 43.755 20.5305 45.1263 17.4276 45.3368C13.6998 45.5914 11.1532 44.8514 9.02197 42.9437C11.2796 44.1114 13.9382 43.6056 17.0122 42.9437C19.0134 42.5126 21.0651 42.3327 22.5858 42.3463C29.6477 42.4108 33.7476 47.6417 33.7476 47.6417Z" fill="#7E7E7E"/>
<path d="M12.4427 35.3434C13.1037 35.9646 13.9887 36.7827 14.8484 38.5173C15.6828 40.2009 15.6937 40.8798 16.5028 42.1086C14.657 41.4603 13.2916 42.7095 8.63903 41.0903C6.48615 40.3435 4.95458 38.4358 4.24658 36.7827C5.90098 38.188 7.24111 38.9043 9.21337 39.1758C11.1567 39.444 12.3957 39.5662 14.0212 40.4623C13.0026 39.444 12.6197 38.8771 12.0779 37.5295C11.4963 36.0868 11.5902 34.8444 10.9328 33.731C11.406 34.2911 11.7817 34.7222 12.4427 35.3434Z" fill="#7E7E7E"/>
<path d="M10.0984 33.1845C10.5824 35.5539 10.4379 37.5363 11.7311 39.0536C10.0153 37.7128 8.3392 37.7196 6.031 36.7488C3.2785 35.4758 1.82639 33.2524 1.06421 30.0175C1.67467 31.4466 3.23876 32.7976 4.97985 33.8193C6.46447 34.6917 8.05023 35.1194 9.15195 36.3923C8.5162 35.6727 8.34643 35.3231 8.20555 34.522C7.75764 32.3291 8.50175 31.0833 8.14776 28.7921C8.50537 29.7391 9.7877 31.6604 10.0984 33.1845Z" fill="#7E7E7E"/>
<path d="M7.48315 26.2224C7.66015 29.936 6.04187 30.6998 7.20501 34.1146C6.18636 32.7399 4.97988 32.3257 3.4158 31.0324C1.46881 29.4166 -0.138621 26.9726 0.00947965 23.6732C0.377925 24.5965 1.53745 26.365 2.81256 27.621C4.08767 28.8769 5.15688 30.3841 5.70955 31.4194C4.43805 27.3155 6.71375 25.754 6.98827 23.2896C7.06052 24.2231 7.42174 25.6046 7.48315 26.2224Z" fill="#7E7E7E"/>
<path d="M6.72469 22.0031C7.07146 20.798 6.92336 20.0818 7.21956 18.7274C6.69579 19.9358 3.63986 22.071 3.95773 26.1885C3.78435 25.4349 3.15943 23.1504 2.27083 21.5516C1.57006 20.2957 0.858454 19.0397 1.02823 17.1829C0.226316 19.6303 0.266051 21.0424 0.616435 22.2679C0.96682 23.4933 1.84098 24.4369 2.59232 25.4078C3.08358 26.0493 4.13112 27.2985 4.6296 28.4594C4.58987 25.9441 6.27316 23.5815 6.72469 22.0031Z" fill="#7E7E7E"/>
<path d="M7.43258 16.891C8.16586 15.8726 8.49818 14.6235 9.2423 13.3166C8.78355 13.8767 8.38621 14.1788 7.24113 15.0885C5.66621 16.3445 4.47057 17.7532 3.84927 20.0954C3.80231 18.6358 3.61086 17.76 3.29298 16.134C3.00762 14.6676 3.07986 12.9907 3.80231 11.1373C2.41161 12.7192 1.21596 15.8353 1.89145 17.9297C2.42605 19.9189 3.34356 20.9236 3.61086 22.329C4.54281 19.5217 6.47173 18.2216 7.43258 16.891Z" fill="#7E7E7E"/>
<path d="M6.945 13.9072C7.64215 13.3811 9.38685 12.3593 10.2393 11.4157C11.0918 10.4754 11.5253 9.57585 12.1249 8.7476C10.8642 9.83384 10.1779 10.1563 8.89559 10.8997C7.73246 11.5243 6.15754 12.3661 5.52179 13.6866C5.90468 12.692 6.09613 11.3783 6.22256 10.2683C6.414 8.61861 7.12922 7.61384 7.65299 7.00623C5.93719 8.30292 4.89687 9.39934 4.43812 11.7347C3.97937 14.0702 4.50314 15.8353 4.32614 17.0913C5.23642 15.394 6.24784 14.4334 6.945 13.9072Z" fill="#7E7E7E"/>
<path d="M6.63428 11.4666C7.40007 9.31109 8.19837 8.02797 9.75523 6.79917C11.7961 5.19018 13.9598 4.43321 14.8196 4.04623C13.1507 5.16642 13.2374 6.13385 11.0159 8.10265C9.2748 9.64035 8.05388 9.76255 6.63428 11.4666Z" fill="#7E7E7E"/>
<path d="M28.7737 31.3583C28.7628 31.7215 28.7484 32.1085 28.7375 32.5158C29.7164 32.9537 30.5906 33.5953 31.006 34.9429C31.0638 32.7976 29.9115 31.9252 28.7737 31.3583ZM24.0128 10.1767C24.5004 9.53852 25.147 9.13457 25.8333 8.87998C25.8189 8.16035 25.8044 7.46448 25.7936 6.85347C24.5401 7.12843 23.9441 7.54255 23.6841 7.62402C22.9797 7.84466 22.0333 7.78696 21.0074 8.83586C20.8232 9.02255 20.3825 9.5487 20.0646 9.9798C19.7576 10.3973 19.7431 11.0728 19.5156 11.4326C19.1868 11.9554 19.2663 12.2541 19.2663 12.2541L19.306 12.3152C19.2627 12.4408 19.1688 12.6343 18.9665 12.8447C18.6233 13.2012 18.1718 13.4014 17.6372 13.32C18.1032 13.5406 18.7498 13.2317 18.7498 13.2317C18.7498 13.2317 18.6017 13.5983 18.4789 14.138C18.9268 13.191 19.3566 12.7327 19.5661 12.546C19.7829 12.6037 20.2452 12.6003 21.1483 12.1149C22.1236 11.5854 23.5937 10.7232 24.0128 10.1767ZM22.2067 9.732L21.4264 10.5263L21.011 10.4618L21.0941 10.1122L21.8093 9.47402L22.3981 9.43329L22.2067 9.732ZM31.1794 23.293C30.4642 22.7906 29.5792 22.4206 28.9001 22.1592C28.8856 23.0588 28.8712 23.7716 28.8604 24.3351C29.6731 24.6678 30.2149 25.0378 30.2583 25.5266C30.3016 26.0086 29.7237 26.3888 28.8134 26.7418V26.7452L28.6653 26.7961C28.4449 26.8776 28.2102 26.9624 27.9573 27.0439C27.7622 27.1084 27.513 27.1899 27.2168 27.2849C26.9134 27.3833 26.6533 27.4852 26.4835 27.5599C24.9194 28.2693 24.8363 29.1858 24.9375 30.0446C25.0242 30.7541 25.6094 31.2259 26.3499 31.5823C26.3318 30.7744 26.3246 30.1974 26.3318 30.1091C26.3679 29.7255 26.5847 29.4506 26.8989 29.2333C27.1554 29.0297 27.578 28.8735 28.1307 28.6699C28.8495 28.4051 29.5033 28.2422 30.6014 27.8484C33.1553 26.9285 33.1517 24.6847 31.1794 23.293ZM35.5429 11.066C35.4346 9.31448 33.5815 6.91118 29.2216 6.63283C29.2071 7.21329 29.1891 7.87522 29.171 8.5643C29.4528 8.59824 29.6912 8.63558 29.8501 8.67292C31.9343 9.13797 32.8374 10.2344 32.8482 11.3444C32.8591 12.4306 31.8946 13.7205 29.7453 14.3146C29.5358 14.3723 29.2974 14.43 29.041 14.4877V14.5047L28.6328 14.6133C28.286 14.6812 27.8056 14.7898 27.513 14.8475C27.1987 14.912 26.8375 14.9731 26.5919 15.0444L25.9453 15.1903V15.1869C25.4721 15.3125 25.0422 15.4483 24.7099 15.5943C22.4089 16.6024 21.5203 18.4253 22.0477 20.428C22.362 21.6229 23.0844 22.4783 24.9953 23.0995C25.3962 23.2285 25.7972 23.3541 26.1945 23.4695L26.1512 21.185C25.6419 20.9847 25.2626 20.7743 24.9772 20.4314C24.2259 19.5251 24.3487 18.2454 26.0826 17.6378V17.631L26.1693 17.6072C26.1945 17.6004 26.2162 17.5902 26.2415 17.5835C27.0687 17.3289 27.9465 17.1388 28.8134 16.9487L28.9868 16.908V16.9113C30.2041 16.6432 31.3925 16.3648 32.3859 15.8794C34.1884 14.9935 35.7019 13.5915 35.5429 11.066ZM26.4907 14.5047C27.0868 14.3349 27.9103 14.2636 28.4775 14.0736C28.4775 13.3607 28.6942 5.00687 28.7267 4.56898C28.8134 3.33678 30.0741 0 27.4913 0C24.9736 0 26.0898 3.52009 26.2885 4.66063C26.3679 5.10192 26.4907 13.7782 26.4907 14.5047ZM28.2824 26.3718C28.2932 26.3005 28.4088 17.8618 28.4161 17.5733C28.0729 17.6208 26.9531 17.9025 26.6533 18.0112C26.6569 18.2013 26.7942 26.8674 26.7942 26.8674C26.7942 26.8674 27.1337 26.752 27.466 26.6467C27.8381 26.5415 28.1126 26.4329 28.2824 26.3718ZM26.8953 30.1566C26.87 30.418 27.0579 37.4786 27.1229 38.2084C27.2782 39.9803 27.8489 40.0041 27.9754 38.3C28.0115 37.7942 28.2716 29.4913 28.2716 29.196C27.4769 29.4268 26.935 29.7188 26.8953 30.1566Z" fill="#7E7E7E"/>
</svg>
