<svg width="96" height="26" viewBox="0 0 96 26" fill="none" xmlns="http://www.w3.org/2000/svg">
<path d="M18.23 1.2V7.422H7.996V25H0.108V1.2H18.23ZM32.3238 25.544C24.5718 25.544 18.8938 20.308 18.8938 13.1C18.8938 5.892 24.5718 0.655999 32.3238 0.655999C40.0758 0.655999 45.7538 5.892 45.7538 13.1C45.7538 20.308 40.0758 25.544 32.3238 25.544ZM32.3238 19.05C35.2818 19.05 37.6618 16.806 37.6618 13.1C37.6618 9.394 35.2818 7.15 32.3238 7.15C29.3658 7.15 26.9858 9.394 26.9858 13.1C26.9858 16.806 29.3658 19.05 32.3238 19.05ZM61.6297 25.544C53.9797 25.544 48.3697 20.41 48.3697 13.1C48.3697 5.79 53.9797 0.655999 61.6297 0.655999C66.2877 0.655999 69.9597 2.356 72.3057 5.416L67.2397 9.938C65.8457 8.17 64.1797 7.15 62.0377 7.15C58.7057 7.15 56.4617 9.462 56.4617 13.1C56.4617 16.738 58.7057 19.05 62.0377 19.05C64.1797 19.05 65.8457 18.03 67.2397 16.262L72.3057 20.784C69.9597 23.844 66.2877 25.544 61.6297 25.544ZM95.848 1.2V7.422H88.878V25H80.99V7.422H74.02V1.2H95.848Z" fill="#7E7E7E"/>
</svg>
