<svg width="24" height="25" viewBox="0 0 24 25" fill="none" xmlns="http://www.w3.org/2000/svg">
<g clip-path="url(#clip0_201_274)">
<path d="M7.8 2.19995H16.2C19.4 2.19995 22 4.79995 22 7.99995V16.4C22 17.9382 21.3889 19.4135 20.3012 20.5012C19.2135 21.5889 17.7383 22.2 16.2 22.2H7.8C4.6 22.2 2 19.6 2 16.4V7.99995C2 6.4617 2.61107 4.98644 3.69878 3.89873C4.78649 2.81102 6.26174 2.19995 7.8 2.19995ZM7.6 4.19995C6.64522 4.19995 5.72955 4.57924 5.05442 5.25437C4.37928 5.9295 4 6.84517 4 7.79995V16.6C4 18.59 5.61 20.2 7.6 20.2H16.4C17.3548 20.2 18.2705 19.8207 18.9456 19.1455C19.6207 18.4704 20 17.5547 20 16.6V7.79995C20 5.80995 18.39 4.19995 16.4 4.19995H7.6ZM17.25 5.69995C17.5815 5.69995 17.8995 5.83165 18.1339 6.06607C18.3683 6.30049 18.5 6.61843 18.5 6.94995C18.5 7.28147 18.3683 7.59941 18.1339 7.83383C17.8995 8.06825 17.5815 8.19995 17.25 8.19995C16.9185 8.19995 16.6005 8.06825 16.3661 7.83383C16.1317 7.59941 16 7.28147 16 6.94995C16 6.61843 16.1317 6.30049 16.3661 6.06607C16.6005 5.83165 16.9185 5.69995 17.25 5.69995ZM12 7.19995C13.3261 7.19995 14.5979 7.72674 15.5355 8.66442C16.4732 9.6021 17 10.8739 17 12.2C17 13.526 16.4732 14.7978 15.5355 15.7355C14.5979 16.6732 13.3261 17.2 12 17.2C10.6739 17.2 9.40215 16.6732 8.46447 15.7355C7.52678 14.7978 7 13.526 7 12.2C7 10.8739 7.52678 9.6021 8.46447 8.66442C9.40215 7.72674 10.6739 7.19995 12 7.19995ZM12 9.19995C11.2044 9.19995 10.4413 9.51602 9.87868 10.0786C9.31607 10.6412 9 11.4043 9 12.2C9 12.9956 9.31607 13.7587 9.87868 14.3213C10.4413 14.8839 11.2044 15.2 12 15.2C12.7956 15.2 13.5587 14.8839 14.1213 14.3213C14.6839 13.7587 15 12.9956 15 12.2C15 11.4043 14.6839 10.6412 14.1213 10.0786C13.5587 9.51602 12.7956 9.19995 12 9.19995Z" fill="white"/>
</g>
<defs>
<clipPath id="clip0_201_274">
<rect width="24" height="24" fill="white" transform="translate(0 0.199951)"/>
</clipPath>
</defs>
</svg>
