<svg width="17" height="17" viewBox="0 0 17 17" fill="none" xmlns="http://www.w3.org/2000/svg">
<path fill-rule="evenodd" clip-rule="evenodd" d="M8.5 2.65625C5.27259 2.65625 2.65625 5.27259 2.65625 8.5C2.65625 11.7274 5.27259 14.3438 8.5 14.3438C11.7274 14.3438 14.3438 11.7274 14.3438 8.5C14.3438 5.27259 11.7274 2.65625 8.5 2.65625ZM1.59375 8.5C1.59375 4.68578 4.68578 1.59375 8.5 1.59375C12.3142 1.59375 15.4062 4.68578 15.4062 8.5C15.4062 12.3142 12.3142 15.4062 8.5 15.4062C4.68578 15.4062 1.59375 12.3142 1.59375 8.5Z" fill="black"/>
<path fill-rule="evenodd" clip-rule="evenodd" d="M1.95898 6.375C1.95898 6.0816 2.19683 5.84375 2.49023 5.84375H14.5098C14.8032 5.84375 15.041 6.0816 15.041 6.375C15.041 6.6684 14.8032 6.90625 14.5098 6.90625H2.49023C2.19683 6.90625 1.95898 6.6684 1.95898 6.375Z" fill="black"/>
<path fill-rule="evenodd" clip-rule="evenodd" d="M1.95898 10.625C1.95898 10.3316 2.19683 10.0938 2.49023 10.0938H14.5098C14.8032 10.0938 15.041 10.3316 15.041 10.625C15.041 10.9184 14.8032 11.1562 14.5098 11.1562H2.49023C2.19683 11.1562 1.95898 10.9184 1.95898 10.625Z" fill="black"/>
<path fill-rule="evenodd" clip-rule="evenodd" d="M7.1101 4.32338C6.66393 5.36519 6.375 6.84146 6.375 8.49995C6.375 10.1584 6.66393 11.6347 7.1101 12.6765C7.33359 13.1984 7.58607 13.5867 7.83937 13.8369C8.0904 14.0848 8.31303 14.171 8.5 14.171C8.68697 14.171 8.9096 14.0848 9.16063 13.8369C9.41393 13.5867 9.66641 13.1984 9.8899 12.6765C10.3361 11.6347 10.625 10.1584 10.625 8.49995C10.625 6.84146 10.3361 5.36519 9.8899 4.32338C9.66641 3.80152 9.41393 3.41316 9.16063 3.163C8.9096 2.91508 8.68697 2.82886 8.5 2.82886C8.31303 2.82886 8.0904 2.91508 7.83937 3.163C7.58607 3.41316 7.33359 3.80152 7.1101 4.32338ZM7.09276 2.40704C7.47732 2.02724 7.95346 1.76636 8.5 1.76636C9.04654 1.76636 9.52268 2.02724 9.90724 2.40704C10.2895 2.78458 10.6094 3.30454 10.8666 3.90509C11.3818 5.10808 11.6875 6.73298 11.6875 8.49995C11.6875 10.2669 11.3818 11.8918 10.8666 13.0948C10.6094 13.6954 10.2895 14.2153 9.90724 14.5929C9.52268 14.9727 9.04654 15.2335 8.5 15.2335C7.95346 15.2335 7.47732 14.9727 7.09276 14.5929C6.71048 14.2153 6.39059 13.6954 6.1334 13.0948C5.6182 11.8918 5.3125 10.2669 5.3125 8.49995C5.3125 6.73298 5.6182 5.10808 6.1334 3.90509C6.39059 3.30454 6.71048 2.78458 7.09276 2.40704Z" fill="black"/>
</svg>
