<svg width="25" height="25" viewBox="0 0 25 25" fill="none" xmlns="http://www.w3.org/2000/svg">
<path fill-rule="evenodd" clip-rule="evenodd" d="M2.5491 4.94084C2.84066 4.62278 3.33485 4.6013 3.65291 4.89285L12.5 13.0027L21.3471 4.89285C21.6652 4.6013 22.1593 4.62278 22.4509 4.94084C22.7425 5.25891 22.721 5.7531 22.4029 6.04466L13.0279 14.6384C12.7292 14.9122 12.2708 14.9122 11.9721 14.6384L2.59709 6.04466C2.27903 5.7531 2.25755 5.25891 2.5491 4.94084Z" fill="black"/>
<path fill-rule="evenodd" clip-rule="evenodd" d="M2.34375 5.46875C2.34375 5.03728 2.69353 4.6875 3.125 4.6875H21.875C22.3065 4.6875 22.6562 5.03728 22.6562 5.46875V18.75C22.6562 19.1644 22.4916 19.5618 22.1986 19.8549C21.9056 20.1479 21.5081 20.3125 21.0938 20.3125H3.90625C3.49185 20.3125 3.09442 20.1479 2.8014 19.8549C2.50837 19.5618 2.34375 19.1644 2.34375 18.75V5.46875ZM3.90625 6.25V18.75H21.0938V6.25H3.90625Z" fill="black"/>
<path fill-rule="evenodd" clip-rule="evenodd" d="M11.3668 11.972C11.6584 12.2899 11.6371 12.7841 11.3191 13.0758L3.89719 19.8824C3.5792 20.1741 3.085 20.1527 2.79337 19.8347C2.50174 19.5167 2.52311 19.0225 2.8411 18.7309L10.263 11.9242C10.581 11.6326 11.0752 11.654 11.3668 11.972Z" fill="black"/>
<path fill-rule="evenodd" clip-rule="evenodd" d="M13.6332 11.972C13.9248 11.654 14.419 11.6326 14.737 11.9242L22.1589 18.7309C22.4769 19.0225 22.4983 19.5167 22.2066 19.8347C21.915 20.1527 21.4208 20.1741 21.1028 19.8824L13.6809 13.0758C13.3629 12.7841 13.3416 12.2899 13.6332 11.972Z" fill="black"/>
</svg>
