<svg width="25" height="25" viewBox="0 0 25 25" fill="none" xmlns="http://www.w3.org/2000/svg">
<path fill-rule="evenodd" clip-rule="evenodd" d="M12.5 7.8125C11.2056 7.8125 10.1562 8.86183 10.1562 10.1562C10.1562 11.4507 11.2056 12.5 12.5 12.5C13.7944 12.5 14.8438 11.4507 14.8438 10.1562C14.8438 8.86183 13.7944 7.8125 12.5 7.8125ZM8.59375 10.1562C8.59375 7.99889 10.3426 6.25 12.5 6.25C14.6574 6.25 16.4062 7.99889 16.4062 10.1562C16.4062 12.3136 14.6574 14.0625 12.5 14.0625C10.3426 14.0625 8.59375 12.3136 8.59375 10.1562Z" fill="black"/>
<path fill-rule="evenodd" clip-rule="evenodd" d="M12.5 3.125C10.6352 3.125 8.84677 3.86579 7.52816 5.18441C6.20954 6.50302 5.46875 8.29145 5.46875 10.1562C5.46875 13.3906 7.27488 16.3357 9.18329 18.5303C10.1279 19.6167 11.0746 20.4926 11.7853 21.0966C12.0663 21.3355 12.3096 21.5311 12.5 21.6797C12.6904 21.5311 12.9337 21.3355 13.2147 21.0966C13.9254 20.4926 14.8721 19.6167 15.8167 18.5303C17.7251 16.3357 19.5312 13.3906 19.5312 10.1562C19.5312 8.29145 18.7905 6.50302 17.4718 5.18441C16.1532 3.86579 14.3648 3.125 12.5 3.125ZM12.5 22.6562C12.052 23.2963 12.0518 23.2961 12.0515 23.2959L12.0509 23.2955L12.049 23.2942L12.0433 23.2901L12.0234 23.276C12.0065 23.2639 11.9824 23.2466 11.9516 23.2241C11.89 23.1792 11.8015 23.1135 11.6899 23.0282C11.4668 22.8577 11.151 22.6082 10.7733 22.2872C10.0191 21.6461 9.01268 20.7153 8.00421 19.5556C6.00637 17.2581 3.90625 13.9532 3.90625 10.1562C3.90625 7.87705 4.81166 5.69119 6.4233 4.07955C8.03494 2.46791 10.2208 1.5625 12.5 1.5625C14.7792 1.5625 16.9651 2.46791 18.5767 4.07955C20.1883 5.69119 21.0938 7.87705 21.0938 10.1562C21.0938 13.9532 18.9936 17.2581 16.9958 19.5556C15.9873 20.7153 14.9809 21.6461 14.2267 22.2872C13.849 22.6082 13.5332 22.8577 13.3101 23.0282C13.1985 23.1135 13.11 23.1792 13.0484 23.2241C13.0176 23.2466 12.9935 23.2639 12.9766 23.276L12.9567 23.2901L12.951 23.2942L12.9491 23.2955L12.9485 23.2959C12.9482 23.2961 12.948 23.2963 12.5 22.6562ZM12.5 22.6562L12.948 23.2963C12.679 23.4846 12.321 23.4846 12.052 23.2963L12.5 22.6562Z" fill="black"/>
</svg>
