<svg width="93" height="18" viewBox="0 0 93 18" fill="none" xmlns="http://www.w3.org/2000/svg">
<g clip-path="url(#clip0_138_78)">
<path d="M7.21871 18C2.84929 18 0 15.0806 0 10.7541C0 6.4314 2.89996 3.50806 7.21871 3.50806C11.5414 3.50806 14.414 6.33006 14.414 10.7268V11.136H1.90992C2.1126 14.4414 4.04201 16.2694 7.21871 16.2694C9.534 16.2694 11.2607 15.1508 11.9233 13.198H13.9073C13.194 16.1447 10.6527 18 7.21871 18ZM12.4067 9.66267C12.2001 6.94201 10.1421 5.188 7.21871 5.188C4.24859 5.188 2.18666 6.9654 1.95669 9.66267H12.4067Z" fill="white"/>
<path d="M30.3288 12.586C29.9468 15.79 27.2262 18 23.6909 18C19.3721 18 16.4722 15.0806 16.4722 10.7541C16.4722 6.4314 19.3721 3.50806 23.6909 3.50806C27.1482 3.50806 29.7403 5.5427 30.2002 8.46215H28.3682C27.7056 6.33006 26.0296 5.188 23.6402 5.188C20.4635 5.188 18.2807 7.37077 18.2807 10.7541C18.2807 14.1373 20.3894 16.2694 23.6909 16.2694C26.1855 16.2694 28.0642 14.8194 28.5241 12.586H30.3288Z" fill="white"/>
<path d="M53.8324 16.094C54.265 16.094 54.7522 16.016 55.2823 15.8874V17.4387C54.4677 17.6414 53.731 17.7466 53.0684 17.7466C51.0376 17.7466 50.453 16.5734 50.453 14.1373V5.44132H48.1377V3.96795H50.453V0H52.2304V3.96795H55.3057V5.44132H52.2304V13.9034C52.2304 15.4547 52.2538 16.094 53.8324 16.094Z" fill="white"/>
<path d="M63.916 18C59.5426 18 56.6973 15.0806 56.6973 10.7541C56.6973 6.4314 59.5933 3.50806 63.916 3.50806C68.2386 3.50806 71.1113 6.33006 71.1113 10.7268V11.136H58.6033C58.806 14.4414 60.7393 16.2694 63.916 16.2694C66.2274 16.2694 67.958 15.1508 68.6167 13.198H70.6007C69.8874 16.1447 67.3499 18 63.916 18ZM69.1 9.66267C68.8973 6.94201 66.8393 5.188 63.916 5.188C60.9381 5.188 58.8839 6.9654 58.654 9.66267H69.1Z" fill="white"/>
<path d="M73.5942 3.99133H75.2976V6.48592C76.6189 4.65396 78.5756 3.71069 80.965 3.71069C84.5509 3.71069 86.1763 5.31269 86.1763 8.77003V17.5167H84.4223V9.91598C84.4223 6.71589 83.6116 5.31269 80.6648 5.31269C77.609 5.31269 75.3482 7.14465 75.3482 9.81074V17.5128H73.5942V3.99133Z" fill="white"/>
<path d="M89.7194 3.42615V3.66781H89.2088V5.39843H88.9437V3.66781H88.437V3.42615H89.7194Z" fill="white"/>
<path d="M89.9883 3.42615H90.4014L91.0602 5.03983L91.7189 3.42615H92.1321V5.39843H91.8631V3.72238L91.1732 5.39843H90.9432L90.2494 3.72238V5.39843H89.9844V3.42615H89.9883Z" fill="white"/>
<path d="M87.9731 4.38889C87.9731 3.04805 89.0645 1.95667 90.4015 1.95667C91.7384 1.95667 92.8259 3.04805 92.8259 4.38889C92.8259 5.72583 91.7384 6.80941 90.4015 6.80941C89.0606 6.80941 87.9731 5.72583 87.9731 4.38889ZM88.1096 4.38889C88.1135 5.65177 89.1386 6.67299 90.3976 6.67299C91.6605 6.67299 92.6817 5.65177 92.6856 4.38889C92.6817 3.1221 91.6605 2.10088 90.3976 2.09699C89.1386 2.10088 88.1135 3.1221 88.1096 4.38889Z" fill="white"/>
<path d="M39.7768 3.50806C35.4659 3.51195 32.5698 6.4353 32.5698 10.7541C32.5698 15.0728 35.4113 17.9922 39.7768 17.9961C44.1385 17.9922 46.9839 15.0728 46.9839 10.7541C46.9839 6.4353 44.0878 3.51585 39.7768 3.50806ZM39.7768 16.2694C36.6079 16.2655 34.6824 14.4375 34.4797 11.136L34.5265 9.66267C34.7565 6.9693 36.8145 5.1958 39.7768 5.1919C42.7392 5.1958 44.7972 6.97319 45.0272 9.66267L45.0739 11.136C44.8713 14.4336 42.9457 16.2655 39.7768 16.2694Z" fill="white"/>
</g>
<defs>
<clipPath id="clip0_138_78">
<rect width="92.8259" height="18" fill="white"/>
</clipPath>
</defs>
</svg>
